%TF.GenerationSoftware,KiCad,Pcbnew,(6.0.11)*%
%TF.CreationDate,2023-02-10T16:41:59+03:00*%
%TF.ProjectId,QDevTiny,51446576-5469-46e7-992e-6b696361645f,rev?*%
%TF.SameCoordinates,Original*%
%TF.FileFunction,Soldermask,Top*%
%TF.FilePolarity,Negative*%
%FSLAX46Y46*%
G04 Gerber Fmt 4.6, Leading zero omitted, Abs format (unit mm)*
G04 Created by KiCad (PCBNEW (6.0.11)) date 2023-02-10 16:41:59*
%MOMM*%
%LPD*%
G01*
G04 APERTURE LIST*
%ADD10R,1.700000X1.700000*%
%ADD11O,1.700000X1.700000*%
%ADD12C,3.200000*%
%ADD13R,1.800000X1.800000*%
%ADD14C,1.800000*%
%ADD15R,1.600000X1.600000*%
%ADD16O,1.600000X1.600000*%
%ADD17C,1.600000*%
%ADD18R,7.498080X1.498600*%
%ADD19R,6.499860X0.998220*%
%ADD20R,1.200000X1.200000*%
%ADD21C,1.200000*%
%ADD22O,1.800000X1.800000*%
%ADD23R,1.500000X1.500000*%
%ADD24O,1.500000X1.500000*%
%ADD25C,2.000000*%
G04 APERTURE END LIST*
D10*
%TO.C,J2*%
X89535000Y-46355000D03*
D11*
X92075000Y-46355000D03*
X94615000Y-46355000D03*
X97155000Y-46355000D03*
X99695000Y-46355000D03*
X102235000Y-46355000D03*
X104775000Y-46355000D03*
X107315000Y-46355000D03*
%TD*%
D12*
%TO.C,REF\u002A\u002A*%
X133350000Y-72390000D03*
%TD*%
D13*
%TO.C,D2*%
X116840000Y-65895000D03*
D14*
X116840000Y-68435000D03*
%TD*%
D15*
%TO.C,U1*%
X107714602Y-63549897D03*
D16*
X107714602Y-61009897D03*
X107714602Y-58469897D03*
X107714602Y-55929897D03*
X100094602Y-55929897D03*
X100094602Y-58469897D03*
X100094602Y-61009897D03*
X100094602Y-63549897D03*
%TD*%
D17*
%TO.C,C1*%
X107148000Y-72644000D03*
X102148000Y-72644000D03*
%TD*%
D12*
%TO.C,REF\u002A\u002A*%
X133350000Y-46990000D03*
%TD*%
D17*
%TO.C,R1*%
X111760000Y-72644000D03*
D16*
X121920000Y-72644000D03*
%TD*%
D17*
%TO.C,R5*%
X100076000Y-68580000D03*
D16*
X110236000Y-68580000D03*
%TD*%
D17*
%TO.C,R2*%
X86360000Y-68580000D03*
D16*
X96520000Y-68580000D03*
%TD*%
D18*
%TO.C,J1*%
X76509880Y-63172580D03*
D19*
X77007720Y-60673220D03*
X77007720Y-58676780D03*
D18*
X76509880Y-56177420D03*
%TD*%
D20*
%TO.C,C2*%
X115691604Y-46736000D03*
D21*
X117191604Y-46736000D03*
%TD*%
D13*
%TO.C,D3*%
X96520000Y-72644000D03*
D22*
X86360000Y-72644000D03*
%TD*%
D13*
%TO.C,D1*%
X116840000Y-59007000D03*
D14*
X116840000Y-61547000D03*
%TD*%
D23*
%TO.C,D4*%
X86609000Y-60973220D03*
D24*
X94229000Y-60973220D03*
%TD*%
D10*
%TO.C,J3*%
X126360000Y-46370000D03*
D11*
X128900000Y-46370000D03*
X126360000Y-48910000D03*
X128900000Y-48910000D03*
X126360000Y-51450000D03*
X128900000Y-51450000D03*
%TD*%
D17*
%TO.C,R3*%
X86360000Y-64008000D03*
D16*
X96520000Y-64008000D03*
%TD*%
D25*
%TO.C,SW1*%
X113590000Y-51090000D03*
X120090000Y-51090000D03*
X113590000Y-55590000D03*
X120090000Y-55590000D03*
%TD*%
D17*
%TO.C,R4*%
X86360000Y-55372000D03*
D16*
X96520000Y-55372000D03*
%TD*%
D23*
%TO.C,D5*%
X86609000Y-58376780D03*
D24*
X94229000Y-58376780D03*
%TD*%
M02*
