%TF.GenerationSoftware,KiCad,Pcbnew,(6.0.11)*%
%TF.CreationDate,2023-02-09T23:11:33+03:00*%
%TF.ProjectId,QDevTiny,51446576-5469-46e7-992e-6b696361645f,rev?*%
%TF.SameCoordinates,Original*%
%TF.FileFunction,Copper,L2,Bot*%
%TF.FilePolarity,Positive*%
%FSLAX46Y46*%
G04 Gerber Fmt 4.6, Leading zero omitted, Abs format (unit mm)*
G04 Created by KiCad (PCBNEW (6.0.11)) date 2023-02-09 23:11:33*
%MOMM*%
%LPD*%
G01*
G04 APERTURE LIST*
%TA.AperFunction,ComponentPad*%
%ADD10R,1.700000X1.700000*%
%TD*%
%TA.AperFunction,ComponentPad*%
%ADD11O,1.700000X1.700000*%
%TD*%
%TA.AperFunction,ComponentPad*%
%ADD12C,3.200000*%
%TD*%
%TA.AperFunction,ComponentPad*%
%ADD13R,1.800000X1.800000*%
%TD*%
%TA.AperFunction,ComponentPad*%
%ADD14C,1.800000*%
%TD*%
%TA.AperFunction,ComponentPad*%
%ADD15R,1.600000X1.600000*%
%TD*%
%TA.AperFunction,ComponentPad*%
%ADD16O,1.600000X1.600000*%
%TD*%
%TA.AperFunction,ComponentPad*%
%ADD17C,1.600000*%
%TD*%
%TA.AperFunction,ComponentPad*%
%ADD18O,1.800000X1.800000*%
%TD*%
%TA.AperFunction,ComponentPad*%
%ADD19R,1.500000X1.500000*%
%TD*%
%TA.AperFunction,ComponentPad*%
%ADD20O,1.500000X1.500000*%
%TD*%
%TA.AperFunction,ComponentPad*%
%ADD21C,2.000000*%
%TD*%
%TA.AperFunction,ViaPad*%
%ADD22C,1.200000*%
%TD*%
%TA.AperFunction,ViaPad*%
%ADD23C,0.600000*%
%TD*%
%TA.AperFunction,Conductor*%
%ADD24C,0.400000*%
%TD*%
G04 APERTURE END LIST*
D10*
%TO.P,J2,1,Pin_1*%
%TO.N,+5V*%
X89535000Y-46355000D03*
D11*
%TO.P,J2,2,Pin_2*%
%TO.N,GND*%
X92075000Y-46355000D03*
%TO.P,J2,3,Pin_3*%
%TO.N,PB0*%
X94615000Y-46355000D03*
%TO.P,J2,4,Pin_4*%
%TO.N,PB1*%
X97155000Y-46355000D03*
%TO.P,J2,5,Pin_5*%
%TO.N,PB2*%
X99695000Y-46355000D03*
%TO.P,J2,6,Pin_6*%
%TO.N,PB3*%
X102235000Y-46355000D03*
%TO.P,J2,7,Pin_7*%
%TO.N,PB4*%
X104775000Y-46355000D03*
%TO.P,J2,8,Pin_8*%
%TO.N,PB5{slash}R*%
X107315000Y-46355000D03*
%TD*%
D12*
%TO.P,REF\u002A\u002A,*%
%TO.N,GND*%
X133350000Y-72390000D03*
%TD*%
D13*
%TO.P,D2,1,K*%
%TO.N,GND*%
X116840000Y-65895000D03*
D14*
%TO.P,D2,2,A*%
%TO.N,Net-(D2-Pad2)*%
X116840000Y-68435000D03*
%TD*%
D15*
%TO.P,U1,1,~{RESET}/PB5*%
%TO.N,PB5{slash}R*%
X107714602Y-63549897D03*
D16*
%TO.P,U1,2,XTAL1/PB3*%
%TO.N,PB3*%
X107714602Y-61009897D03*
%TO.P,U1,3,XTAL2/PB4*%
%TO.N,PB4*%
X107714602Y-58469897D03*
%TO.P,U1,4,GND*%
%TO.N,GND*%
X107714602Y-55929897D03*
%TO.P,U1,5,AREF/PB0*%
%TO.N,PB0*%
X100094602Y-55929897D03*
%TO.P,U1,6,PB1*%
%TO.N,PB1*%
X100094602Y-58469897D03*
%TO.P,U1,7,PB2*%
%TO.N,PB2*%
X100094602Y-61009897D03*
%TO.P,U1,8,VCC*%
%TO.N,+5V*%
X100094602Y-63549897D03*
%TD*%
D17*
%TO.P,C1,1*%
%TO.N,+5V*%
X107148000Y-72644000D03*
%TO.P,C1,2*%
%TO.N,GND*%
X102148000Y-72644000D03*
%TD*%
D12*
%TO.P,REF\u002A\u002A,*%
%TO.N,GND*%
X133350000Y-46990000D03*
%TD*%
D17*
%TO.P,R1,1*%
%TO.N,+5V*%
X111760000Y-72644000D03*
D16*
%TO.P,R1,2*%
%TO.N,Net-(D1-Pad2)*%
X121920000Y-72644000D03*
%TD*%
D17*
%TO.P,R5,1*%
%TO.N,+5V*%
X100076000Y-68580000D03*
D16*
%TO.P,R5,2*%
%TO.N,/D-*%
X110236000Y-68580000D03*
%TD*%
D17*
%TO.P,R2,1*%
%TO.N,PB0*%
X86360000Y-68580000D03*
D16*
%TO.P,R2,2*%
%TO.N,Net-(D2-Pad2)*%
X96520000Y-68580000D03*
%TD*%
D17*
%TO.P,C2,1*%
%TO.N,+5V*%
X115610000Y-46355000D03*
%TO.P,C2,2*%
%TO.N,GND*%
X120610000Y-46355000D03*
%TD*%
D13*
%TO.P,D3,1,K*%
%TO.N,+5V*%
X96520000Y-72644000D03*
D18*
%TO.P,D3,2,A*%
%TO.N,Net-(D3-Pad2)*%
X86360000Y-72644000D03*
%TD*%
D13*
%TO.P,D1,1,K*%
%TO.N,GND*%
X116840000Y-59007000D03*
D14*
%TO.P,D1,2,A*%
%TO.N,Net-(D1-Pad2)*%
X116840000Y-61547000D03*
%TD*%
D19*
%TO.P,D4,1,K*%
%TO.N,/D-*%
X86609000Y-60973220D03*
D20*
%TO.P,D4,2,A*%
%TO.N,GND*%
X94229000Y-60973220D03*
%TD*%
D10*
%TO.P,J3,1,MISO*%
%TO.N,PB1*%
X126360000Y-46370000D03*
D11*
%TO.P,J3,2,VCC*%
%TO.N,+5V*%
X128900000Y-46370000D03*
%TO.P,J3,3,SCK*%
%TO.N,PB2*%
X126360000Y-48910000D03*
%TO.P,J3,4,MOSI*%
%TO.N,PB0*%
X128900000Y-48910000D03*
%TO.P,J3,5,~{RST}*%
%TO.N,PB5{slash}R*%
X126360000Y-51450000D03*
%TO.P,J3,6,GND*%
%TO.N,GND*%
X128900000Y-51450000D03*
%TD*%
D17*
%TO.P,R3,1*%
%TO.N,/D-*%
X86360000Y-64008000D03*
D16*
%TO.P,R3,2*%
%TO.N,PB3*%
X96520000Y-64008000D03*
%TD*%
D21*
%TO.P,SW1,1,1*%
%TO.N,PB5{slash}R*%
X113590000Y-50582000D03*
X120090000Y-50582000D03*
%TO.P,SW1,2,2*%
%TO.N,GND*%
X113590000Y-55082000D03*
X120090000Y-55082000D03*
%TD*%
D17*
%TO.P,R4,1*%
%TO.N,/D+*%
X86360000Y-55372000D03*
D16*
%TO.P,R4,2*%
%TO.N,PB4*%
X96520000Y-55372000D03*
%TD*%
D19*
%TO.P,D5,1,K*%
%TO.N,/D+*%
X86609000Y-58376780D03*
D20*
%TO.P,D5,2,A*%
%TO.N,GND*%
X94229000Y-58376780D03*
%TD*%
D22*
%TO.N,GND*%
X84543938Y-56896000D03*
D23*
%TO.N,Net-(D2-Pad2)*%
X98552000Y-66548000D03*
X101600000Y-66548000D03*
%TO.N,/D-*%
X98552000Y-65532000D03*
%TO.N,PB2*%
X99060000Y-53340000D03*
X109220000Y-49784000D03*
%TO.N,PB1*%
X95629865Y-52706134D03*
X96901000Y-51435000D03*
X105986361Y-50800000D03*
%TO.N,PB0*%
X89408000Y-64516000D03*
X112268000Y-52832000D03*
X93980000Y-55880000D03*
%TO.N,PB3*%
X102108000Y-55880000D03*
%TD*%
D24*
%TO.N,Net-(D2-Pad2)*%
X101600000Y-66548000D02*
X98552000Y-66548000D01*
%TO.N,/D-*%
X98552000Y-65532000D02*
X103124000Y-65532000D01*
X106172000Y-68580000D02*
X110236000Y-68580000D01*
X103124000Y-65532000D02*
X106172000Y-68580000D01*
%TO.N,PB2*%
X99060000Y-53340000D02*
X98552000Y-53848000D01*
X103124000Y-49784000D02*
X109220000Y-49784000D01*
X98552000Y-59467295D02*
X100094602Y-61009897D01*
X98552000Y-53848000D02*
X98552000Y-59467295D01*
X99695000Y-46355000D02*
X103124000Y-49784000D01*
%TO.N,PB1*%
X96901000Y-51435000D02*
X97536000Y-50800000D01*
X97536000Y-50800000D02*
X105986361Y-50800000D01*
X96901000Y-51435000D02*
X95629865Y-52706134D01*
%TO.N,PB0*%
X89408000Y-64516000D02*
X89408000Y-65532000D01*
X97536000Y-52324000D02*
X99568000Y-52324000D01*
X99568000Y-52324000D02*
X100094602Y-52850602D01*
X112249398Y-52850602D02*
X100094602Y-52850602D01*
X93980000Y-55880000D02*
X97536000Y-52324000D01*
X112268000Y-52832000D02*
X112249398Y-52850602D01*
X89408000Y-65532000D02*
X86360000Y-68580000D01*
X100094602Y-55929897D02*
X100094602Y-52850602D01*
%TO.N,PB5{slash}R*%
X111542000Y-50582000D02*
X113590000Y-50582000D01*
X107315000Y-46355000D02*
X111542000Y-50582000D01*
%TO.N,PB3*%
X102108000Y-57404000D02*
X105713897Y-61009897D01*
X105713897Y-61009897D02*
X107714602Y-61009897D01*
X102108000Y-55880000D02*
X102108000Y-57404000D01*
%TD*%
%TA.AperFunction,Conductor*%
%TO.N,GND*%
G36*
X133955018Y-44325000D02*
G01*
X133969851Y-44327310D01*
X133969855Y-44327310D01*
X133978724Y-44328691D01*
X133987626Y-44327527D01*
X133987629Y-44327527D01*
X133995012Y-44326561D01*
X134019591Y-44325767D01*
X134046427Y-44327526D01*
X134241922Y-44340340D01*
X134258262Y-44342491D01*
X134380477Y-44366801D01*
X134502696Y-44391112D01*
X134518606Y-44395375D01*
X134754523Y-44475458D01*
X134754600Y-44475484D01*
X134769826Y-44481791D01*
X134993342Y-44592016D01*
X135007616Y-44600257D01*
X135214829Y-44738713D01*
X135227905Y-44748746D01*
X135415278Y-44913068D01*
X135426932Y-44924722D01*
X135591254Y-45112095D01*
X135601287Y-45125171D01*
X135739743Y-45332384D01*
X135747984Y-45346658D01*
X135858209Y-45570174D01*
X135864515Y-45585398D01*
X135944625Y-45821394D01*
X135948889Y-45837307D01*
X135997509Y-46081738D01*
X135999660Y-46098078D01*
X136013763Y-46313236D01*
X136012733Y-46336350D01*
X136012690Y-46339854D01*
X136011309Y-46348724D01*
X136012473Y-46357626D01*
X136012473Y-46357628D01*
X136015436Y-46380283D01*
X136016500Y-46396621D01*
X136016500Y-72975633D01*
X136015000Y-72995018D01*
X136012690Y-73009851D01*
X136012690Y-73009855D01*
X136011309Y-73018724D01*
X136012473Y-73027626D01*
X136012473Y-73027629D01*
X136013439Y-73035012D01*
X136014233Y-73059591D01*
X135999660Y-73281922D01*
X135997509Y-73298262D01*
X135996168Y-73305006D01*
X135952286Y-73525617D01*
X135948889Y-73542693D01*
X135944625Y-73558606D01*
X135886424Y-73730062D01*
X135864516Y-73794600D01*
X135858209Y-73809826D01*
X135747984Y-74033342D01*
X135739743Y-74047616D01*
X135601287Y-74254829D01*
X135591254Y-74267905D01*
X135426932Y-74455278D01*
X135415278Y-74466932D01*
X135227905Y-74631254D01*
X135214829Y-74641287D01*
X135007616Y-74779743D01*
X134993342Y-74787984D01*
X134769826Y-74898209D01*
X134754602Y-74904515D01*
X134518606Y-74984625D01*
X134502696Y-74988888D01*
X134380477Y-75013199D01*
X134258262Y-75037509D01*
X134241922Y-75039660D01*
X134093134Y-75049413D01*
X134026763Y-75053763D01*
X134003650Y-75052733D01*
X134000146Y-75052690D01*
X133991276Y-75051309D01*
X133982374Y-75052473D01*
X133982372Y-75052473D01*
X133968923Y-75054232D01*
X133959714Y-75055436D01*
X133943379Y-75056500D01*
X85886133Y-75056500D01*
X85866745Y-75054999D01*
X85851919Y-75052690D01*
X85851912Y-75052690D01*
X85843044Y-75051309D01*
X85826750Y-75053439D01*
X85802179Y-75054232D01*
X85734271Y-75049780D01*
X85579851Y-75039656D01*
X85563511Y-75037505D01*
X85319083Y-74988882D01*
X85303163Y-74984616D01*
X85067173Y-74904505D01*
X85051947Y-74898197D01*
X84828444Y-74787975D01*
X84814170Y-74779735D01*
X84606941Y-74641267D01*
X84593885Y-74631248D01*
X84406504Y-74466916D01*
X84394860Y-74455272D01*
X84390958Y-74450822D01*
X84230534Y-74267890D01*
X84220505Y-74254819D01*
X84140385Y-74134910D01*
X84082050Y-74047604D01*
X84073811Y-74033334D01*
X84070737Y-74027099D01*
X83963587Y-73809818D01*
X83957281Y-73794593D01*
X83918166Y-73679364D01*
X83877174Y-73558605D01*
X83872909Y-73542688D01*
X83869514Y-73525617D01*
X83835817Y-73356211D01*
X83824290Y-73298259D01*
X83822139Y-73281919D01*
X83820270Y-73253406D01*
X83820000Y-73245165D01*
X83820000Y-72609469D01*
X84947095Y-72609469D01*
X84947392Y-72614622D01*
X84947392Y-72614625D01*
X84953067Y-72713041D01*
X84960427Y-72840697D01*
X84961564Y-72845743D01*
X84961565Y-72845749D01*
X84990836Y-72975633D01*
X85011346Y-73066642D01*
X85013288Y-73071424D01*
X85013289Y-73071428D01*
X85087183Y-73253406D01*
X85098484Y-73281237D01*
X85219501Y-73478719D01*
X85371147Y-73653784D01*
X85549349Y-73801730D01*
X85749322Y-73918584D01*
X85965694Y-74001209D01*
X85970760Y-74002240D01*
X85970761Y-74002240D01*
X86023846Y-74013040D01*
X86192656Y-74047385D01*
X86322089Y-74052131D01*
X86418949Y-74055683D01*
X86418953Y-74055683D01*
X86424113Y-74055872D01*
X86429233Y-74055216D01*
X86429235Y-74055216D01*
X86503166Y-74045745D01*
X86653847Y-74026442D01*
X86658795Y-74024957D01*
X86658802Y-74024956D01*
X86870747Y-73961369D01*
X86875690Y-73959886D01*
X86880565Y-73957498D01*
X87079049Y-73860262D01*
X87079052Y-73860260D01*
X87083684Y-73857991D01*
X87272243Y-73723494D01*
X87404062Y-73592134D01*
X95111500Y-73592134D01*
X95118255Y-73654316D01*
X95169385Y-73790705D01*
X95256739Y-73907261D01*
X95373295Y-73994615D01*
X95509684Y-74045745D01*
X95571866Y-74052500D01*
X97468134Y-74052500D01*
X97485191Y-74050647D01*
X132054625Y-74050647D01*
X132061680Y-74060620D01*
X132104757Y-74096637D01*
X132111694Y-74101677D01*
X132347895Y-74249846D01*
X132355446Y-74253895D01*
X132609581Y-74368640D01*
X132617612Y-74371627D01*
X132884967Y-74450822D01*
X132893318Y-74452689D01*
X133168954Y-74494867D01*
X133177487Y-74495583D01*
X133456291Y-74499963D01*
X133464842Y-74499514D01*
X133741659Y-74466016D01*
X133750073Y-74464411D01*
X134019786Y-74393654D01*
X134027902Y-74390923D01*
X134285521Y-74284213D01*
X134293183Y-74280410D01*
X134533933Y-74139727D01*
X134541020Y-74134910D01*
X134635883Y-74060529D01*
X134644353Y-74048670D01*
X134637836Y-74037046D01*
X133362812Y-72762022D01*
X133348868Y-72754408D01*
X133347035Y-72754539D01*
X133340420Y-72758790D01*
X132061917Y-74037293D01*
X132054625Y-74050647D01*
X97485191Y-74050647D01*
X97530316Y-74045745D01*
X97666705Y-73994615D01*
X97783261Y-73907261D01*
X97870615Y-73790705D01*
X97893349Y-73730062D01*
X101426493Y-73730062D01*
X101435789Y-73742077D01*
X101486994Y-73777931D01*
X101496489Y-73783414D01*
X101693947Y-73875490D01*
X101704239Y-73879236D01*
X101914688Y-73935625D01*
X101925481Y-73937528D01*
X102142525Y-73956517D01*
X102153475Y-73956517D01*
X102370519Y-73937528D01*
X102381312Y-73935625D01*
X102591761Y-73879236D01*
X102602053Y-73875490D01*
X102799511Y-73783414D01*
X102809006Y-73777931D01*
X102861048Y-73741491D01*
X102869424Y-73731012D01*
X102862356Y-73717566D01*
X102160812Y-73016022D01*
X102146868Y-73008408D01*
X102145035Y-73008539D01*
X102138420Y-73012790D01*
X101432923Y-73718287D01*
X101426493Y-73730062D01*
X97893349Y-73730062D01*
X97921745Y-73654316D01*
X97928500Y-73592134D01*
X97928500Y-72649475D01*
X100835483Y-72649475D01*
X100854472Y-72866519D01*
X100856375Y-72877312D01*
X100912764Y-73087761D01*
X100916510Y-73098053D01*
X101008586Y-73295511D01*
X101014069Y-73305006D01*
X101050509Y-73357048D01*
X101060988Y-73365424D01*
X101074434Y-73358356D01*
X101775978Y-72656812D01*
X101782356Y-72645132D01*
X102512408Y-72645132D01*
X102512539Y-72646965D01*
X102516790Y-72653580D01*
X103222287Y-73359077D01*
X103234062Y-73365507D01*
X103246077Y-73356211D01*
X103281931Y-73305006D01*
X103287414Y-73295511D01*
X103379490Y-73098053D01*
X103383236Y-73087761D01*
X103439625Y-72877312D01*
X103441528Y-72866519D01*
X103460517Y-72649475D01*
X103460517Y-72644000D01*
X105834502Y-72644000D01*
X105854457Y-72872087D01*
X105855881Y-72877400D01*
X105855881Y-72877402D01*
X105907871Y-73071428D01*
X105913716Y-73093243D01*
X105916039Y-73098224D01*
X105916039Y-73098225D01*
X106008151Y-73295762D01*
X106008154Y-73295767D01*
X106010477Y-73300749D01*
X106013634Y-73305257D01*
X106132012Y-73474318D01*
X106141802Y-73488300D01*
X106303700Y-73650198D01*
X106308208Y-73653355D01*
X106308211Y-73653357D01*
X106343482Y-73678054D01*
X106491251Y-73781523D01*
X106496233Y-73783846D01*
X106496238Y-73783849D01*
X106655238Y-73857991D01*
X106698757Y-73878284D01*
X106704065Y-73879706D01*
X106704067Y-73879707D01*
X106914598Y-73936119D01*
X106914600Y-73936119D01*
X106919913Y-73937543D01*
X107148000Y-73957498D01*
X107376087Y-73937543D01*
X107381400Y-73936119D01*
X107381402Y-73936119D01*
X107591933Y-73879707D01*
X107591935Y-73879706D01*
X107597243Y-73878284D01*
X107640762Y-73857991D01*
X107799762Y-73783849D01*
X107799767Y-73783846D01*
X107804749Y-73781523D01*
X107952518Y-73678054D01*
X107987789Y-73653357D01*
X107987792Y-73653355D01*
X107992300Y-73650198D01*
X108154198Y-73488300D01*
X108163989Y-73474318D01*
X108282366Y-73305257D01*
X108285523Y-73300749D01*
X108287846Y-73295767D01*
X108287849Y-73295762D01*
X108379961Y-73098225D01*
X108379961Y-73098224D01*
X108382284Y-73093243D01*
X108388130Y-73071428D01*
X108440119Y-72877402D01*
X108440119Y-72877400D01*
X108441543Y-72872087D01*
X108461498Y-72644000D01*
X110446502Y-72644000D01*
X110466457Y-72872087D01*
X110467881Y-72877400D01*
X110467881Y-72877402D01*
X110519871Y-73071428D01*
X110525716Y-73093243D01*
X110528039Y-73098224D01*
X110528039Y-73098225D01*
X110620151Y-73295762D01*
X110620154Y-73295767D01*
X110622477Y-73300749D01*
X110625634Y-73305257D01*
X110744012Y-73474318D01*
X110753802Y-73488300D01*
X110915700Y-73650198D01*
X110920208Y-73653355D01*
X110920211Y-73653357D01*
X110955482Y-73678054D01*
X111103251Y-73781523D01*
X111108233Y-73783846D01*
X111108238Y-73783849D01*
X111267238Y-73857991D01*
X111310757Y-73878284D01*
X111316065Y-73879706D01*
X111316067Y-73879707D01*
X111526598Y-73936119D01*
X111526600Y-73936119D01*
X111531913Y-73937543D01*
X111760000Y-73957498D01*
X111988087Y-73937543D01*
X111993400Y-73936119D01*
X111993402Y-73936119D01*
X112203933Y-73879707D01*
X112203935Y-73879706D01*
X112209243Y-73878284D01*
X112252762Y-73857991D01*
X112411762Y-73783849D01*
X112411767Y-73783846D01*
X112416749Y-73781523D01*
X112564518Y-73678054D01*
X112599789Y-73653357D01*
X112599792Y-73653355D01*
X112604300Y-73650198D01*
X112766198Y-73488300D01*
X112775989Y-73474318D01*
X112894366Y-73305257D01*
X112897523Y-73300749D01*
X112899846Y-73295767D01*
X112899849Y-73295762D01*
X112991961Y-73098225D01*
X112991961Y-73098224D01*
X112994284Y-73093243D01*
X113000130Y-73071428D01*
X113052119Y-72877402D01*
X113052119Y-72877400D01*
X113053543Y-72872087D01*
X113073498Y-72644000D01*
X120606502Y-72644000D01*
X120626457Y-72872087D01*
X120627881Y-72877400D01*
X120627881Y-72877402D01*
X120679871Y-73071428D01*
X120685716Y-73093243D01*
X120688039Y-73098224D01*
X120688039Y-73098225D01*
X120780151Y-73295762D01*
X120780154Y-73295767D01*
X120782477Y-73300749D01*
X120785634Y-73305257D01*
X120904012Y-73474318D01*
X120913802Y-73488300D01*
X121075700Y-73650198D01*
X121080208Y-73653355D01*
X121080211Y-73653357D01*
X121115482Y-73678054D01*
X121263251Y-73781523D01*
X121268233Y-73783846D01*
X121268238Y-73783849D01*
X121427238Y-73857991D01*
X121470757Y-73878284D01*
X121476065Y-73879706D01*
X121476067Y-73879707D01*
X121686598Y-73936119D01*
X121686600Y-73936119D01*
X121691913Y-73937543D01*
X121920000Y-73957498D01*
X122148087Y-73937543D01*
X122153400Y-73936119D01*
X122153402Y-73936119D01*
X122363933Y-73879707D01*
X122363935Y-73879706D01*
X122369243Y-73878284D01*
X122412762Y-73857991D01*
X122571762Y-73783849D01*
X122571767Y-73783846D01*
X122576749Y-73781523D01*
X122724518Y-73678054D01*
X122759789Y-73653357D01*
X122759792Y-73653355D01*
X122764300Y-73650198D01*
X122926198Y-73488300D01*
X122935989Y-73474318D01*
X123054366Y-73305257D01*
X123057523Y-73300749D01*
X123059846Y-73295767D01*
X123059849Y-73295762D01*
X123151961Y-73098225D01*
X123151961Y-73098224D01*
X123154284Y-73093243D01*
X123160130Y-73071428D01*
X123212119Y-72877402D01*
X123212119Y-72877400D01*
X123213543Y-72872087D01*
X123233498Y-72644000D01*
X123213543Y-72415913D01*
X123207394Y-72392965D01*
X123201818Y-72372154D01*
X131237437Y-72372154D01*
X131253488Y-72650533D01*
X131254561Y-72659033D01*
X131308246Y-72932664D01*
X131310457Y-72940916D01*
X131400782Y-73204736D01*
X131404097Y-73212621D01*
X131529389Y-73461736D01*
X131533745Y-73469102D01*
X131677432Y-73678166D01*
X131687685Y-73686510D01*
X131701426Y-73679364D01*
X132977978Y-72402812D01*
X132984356Y-72391132D01*
X133714408Y-72391132D01*
X133714539Y-72392965D01*
X133718790Y-72399580D01*
X134997264Y-73678054D01*
X135009474Y-73684721D01*
X135020973Y-73676032D01*
X135131464Y-73525617D01*
X135136048Y-73518393D01*
X135269099Y-73273346D01*
X135272667Y-73265553D01*
X135371227Y-73004721D01*
X135373704Y-72996515D01*
X135435954Y-72724718D01*
X135437294Y-72716257D01*
X135462243Y-72436715D01*
X135462489Y-72431776D01*
X135462900Y-72392485D01*
X135462757Y-72387519D01*
X135443669Y-72107520D01*
X135442508Y-72099046D01*
X135385962Y-71825998D01*
X135383658Y-71817744D01*
X135290579Y-71554897D01*
X135287183Y-71547049D01*
X135159286Y-71299254D01*
X135154858Y-71291942D01*
X135021812Y-71102636D01*
X135011290Y-71094256D01*
X134997902Y-71101308D01*
X133722022Y-72377188D01*
X133714408Y-72391132D01*
X132984356Y-72391132D01*
X132985592Y-72388868D01*
X132985461Y-72387035D01*
X132981210Y-72380420D01*
X131702160Y-71101370D01*
X131690150Y-71094811D01*
X131678410Y-71103779D01*
X131556748Y-71273091D01*
X131552226Y-71280385D01*
X131421757Y-71526799D01*
X131418271Y-71534627D01*
X131322446Y-71796481D01*
X131320057Y-71804704D01*
X131260654Y-72077151D01*
X131259405Y-72085607D01*
X131237526Y-72363604D01*
X131237437Y-72372154D01*
X123201818Y-72372154D01*
X123155707Y-72200067D01*
X123155706Y-72200065D01*
X123154284Y-72194757D01*
X123075402Y-72025592D01*
X123059849Y-71992238D01*
X123059846Y-71992233D01*
X123057523Y-71987251D01*
X122926198Y-71799700D01*
X122764300Y-71637802D01*
X122759792Y-71634645D01*
X122759789Y-71634643D01*
X122648886Y-71556988D01*
X122576749Y-71506477D01*
X122571767Y-71504154D01*
X122571762Y-71504151D01*
X122374225Y-71412039D01*
X122374224Y-71412039D01*
X122369243Y-71409716D01*
X122363935Y-71408294D01*
X122363933Y-71408293D01*
X122153402Y-71351881D01*
X122153400Y-71351881D01*
X122148087Y-71350457D01*
X121920000Y-71330502D01*
X121691913Y-71350457D01*
X121686600Y-71351881D01*
X121686598Y-71351881D01*
X121476067Y-71408293D01*
X121476065Y-71408294D01*
X121470757Y-71409716D01*
X121465776Y-71412039D01*
X121465775Y-71412039D01*
X121268238Y-71504151D01*
X121268233Y-71504154D01*
X121263251Y-71506477D01*
X121191114Y-71556988D01*
X121080211Y-71634643D01*
X121080208Y-71634645D01*
X121075700Y-71637802D01*
X120913802Y-71799700D01*
X120782477Y-71987251D01*
X120780154Y-71992233D01*
X120780151Y-71992238D01*
X120764598Y-72025592D01*
X120685716Y-72194757D01*
X120684294Y-72200065D01*
X120684293Y-72200067D01*
X120632606Y-72392965D01*
X120626457Y-72415913D01*
X120606502Y-72644000D01*
X113073498Y-72644000D01*
X113053543Y-72415913D01*
X113047394Y-72392965D01*
X112995707Y-72200067D01*
X112995706Y-72200065D01*
X112994284Y-72194757D01*
X112915402Y-72025592D01*
X112899849Y-71992238D01*
X112899846Y-71992233D01*
X112897523Y-71987251D01*
X112766198Y-71799700D01*
X112604300Y-71637802D01*
X112599792Y-71634645D01*
X112599789Y-71634643D01*
X112488886Y-71556988D01*
X112416749Y-71506477D01*
X112411767Y-71504154D01*
X112411762Y-71504151D01*
X112214225Y-71412039D01*
X112214224Y-71412039D01*
X112209243Y-71409716D01*
X112203935Y-71408294D01*
X112203933Y-71408293D01*
X111993402Y-71351881D01*
X111993400Y-71351881D01*
X111988087Y-71350457D01*
X111760000Y-71330502D01*
X111531913Y-71350457D01*
X111526600Y-71351881D01*
X111526598Y-71351881D01*
X111316067Y-71408293D01*
X111316065Y-71408294D01*
X111310757Y-71409716D01*
X111305776Y-71412039D01*
X111305775Y-71412039D01*
X111108238Y-71504151D01*
X111108233Y-71504154D01*
X111103251Y-71506477D01*
X111031114Y-71556988D01*
X110920211Y-71634643D01*
X110920208Y-71634645D01*
X110915700Y-71637802D01*
X110753802Y-71799700D01*
X110622477Y-71987251D01*
X110620154Y-71992233D01*
X110620151Y-71992238D01*
X110604598Y-72025592D01*
X110525716Y-72194757D01*
X110524294Y-72200065D01*
X110524293Y-72200067D01*
X110472606Y-72392965D01*
X110466457Y-72415913D01*
X110446502Y-72644000D01*
X108461498Y-72644000D01*
X108441543Y-72415913D01*
X108435394Y-72392965D01*
X108383707Y-72200067D01*
X108383706Y-72200065D01*
X108382284Y-72194757D01*
X108303402Y-72025592D01*
X108287849Y-71992238D01*
X108287846Y-71992233D01*
X108285523Y-71987251D01*
X108154198Y-71799700D01*
X107992300Y-71637802D01*
X107987792Y-71634645D01*
X107987789Y-71634643D01*
X107876886Y-71556988D01*
X107804749Y-71506477D01*
X107799767Y-71504154D01*
X107799762Y-71504151D01*
X107602225Y-71412039D01*
X107602224Y-71412039D01*
X107597243Y-71409716D01*
X107591935Y-71408294D01*
X107591933Y-71408293D01*
X107381402Y-71351881D01*
X107381400Y-71351881D01*
X107376087Y-71350457D01*
X107148000Y-71330502D01*
X106919913Y-71350457D01*
X106914600Y-71351881D01*
X106914598Y-71351881D01*
X106704067Y-71408293D01*
X106704065Y-71408294D01*
X106698757Y-71409716D01*
X106693776Y-71412039D01*
X106693775Y-71412039D01*
X106496238Y-71504151D01*
X106496233Y-71504154D01*
X106491251Y-71506477D01*
X106419114Y-71556988D01*
X106308211Y-71634643D01*
X106308208Y-71634645D01*
X106303700Y-71637802D01*
X106141802Y-71799700D01*
X106010477Y-71987251D01*
X106008154Y-71992233D01*
X106008151Y-71992238D01*
X105992598Y-72025592D01*
X105913716Y-72194757D01*
X105912294Y-72200065D01*
X105912293Y-72200067D01*
X105860606Y-72392965D01*
X105854457Y-72415913D01*
X105834502Y-72644000D01*
X103460517Y-72644000D01*
X103460517Y-72638525D01*
X103441528Y-72421481D01*
X103439625Y-72410688D01*
X103383236Y-72200239D01*
X103379490Y-72189947D01*
X103287414Y-71992489D01*
X103281931Y-71982994D01*
X103245491Y-71930952D01*
X103235012Y-71922576D01*
X103221566Y-71929644D01*
X102520022Y-72631188D01*
X102512408Y-72645132D01*
X101782356Y-72645132D01*
X101783592Y-72642868D01*
X101783461Y-72641035D01*
X101779210Y-72634420D01*
X101073713Y-71928923D01*
X101061938Y-71922493D01*
X101049923Y-71931789D01*
X101014069Y-71982994D01*
X101008586Y-71992489D01*
X100916510Y-72189947D01*
X100912764Y-72200239D01*
X100856375Y-72410688D01*
X100854472Y-72421481D01*
X100835483Y-72638525D01*
X100835483Y-72649475D01*
X97928500Y-72649475D01*
X97928500Y-71695866D01*
X97921745Y-71633684D01*
X97892993Y-71556988D01*
X101426576Y-71556988D01*
X101433644Y-71570434D01*
X102135188Y-72271978D01*
X102149132Y-72279592D01*
X102150965Y-72279461D01*
X102157580Y-72275210D01*
X102863077Y-71569713D01*
X102869507Y-71557938D01*
X102860211Y-71545923D01*
X102809006Y-71510069D01*
X102799511Y-71504586D01*
X102602053Y-71412510D01*
X102591761Y-71408764D01*
X102381312Y-71352375D01*
X102370519Y-71350472D01*
X102153475Y-71331483D01*
X102142525Y-71331483D01*
X101925481Y-71350472D01*
X101914688Y-71352375D01*
X101704239Y-71408764D01*
X101693947Y-71412510D01*
X101496489Y-71504586D01*
X101486994Y-71510069D01*
X101434952Y-71546509D01*
X101426576Y-71556988D01*
X97892993Y-71556988D01*
X97870615Y-71497295D01*
X97783261Y-71380739D01*
X97666705Y-71293385D01*
X97530316Y-71242255D01*
X97468134Y-71235500D01*
X95571866Y-71235500D01*
X95509684Y-71242255D01*
X95373295Y-71293385D01*
X95256739Y-71380739D01*
X95169385Y-71497295D01*
X95118255Y-71633684D01*
X95111500Y-71695866D01*
X95111500Y-73592134D01*
X87404062Y-73592134D01*
X87436303Y-73560005D01*
X87571458Y-73371917D01*
X87579221Y-73356211D01*
X87671784Y-73168922D01*
X87671785Y-73168920D01*
X87674078Y-73164280D01*
X87741408Y-72942671D01*
X87771640Y-72713041D01*
X87773093Y-72653580D01*
X87773245Y-72647365D01*
X87773245Y-72647361D01*
X87773327Y-72644000D01*
X87755033Y-72421481D01*
X87754773Y-72418318D01*
X87754772Y-72418312D01*
X87754349Y-72413167D01*
X87720797Y-72279592D01*
X87699184Y-72193544D01*
X87699183Y-72193540D01*
X87697925Y-72188533D01*
X87695866Y-72183797D01*
X87607630Y-71980868D01*
X87607628Y-71980865D01*
X87605570Y-71976131D01*
X87479764Y-71781665D01*
X87323887Y-71610358D01*
X87319836Y-71607159D01*
X87319832Y-71607155D01*
X87146177Y-71470011D01*
X87146172Y-71470008D01*
X87142123Y-71466810D01*
X87137607Y-71464317D01*
X87137604Y-71464315D01*
X86943879Y-71357373D01*
X86943875Y-71357371D01*
X86939355Y-71354876D01*
X86934486Y-71353152D01*
X86934482Y-71353150D01*
X86725903Y-71279288D01*
X86725899Y-71279287D01*
X86721028Y-71277562D01*
X86715935Y-71276655D01*
X86715932Y-71276654D01*
X86498095Y-71237851D01*
X86498089Y-71237850D01*
X86493006Y-71236945D01*
X86420096Y-71236054D01*
X86266581Y-71234179D01*
X86266579Y-71234179D01*
X86261411Y-71234116D01*
X86032464Y-71269150D01*
X85812314Y-71341106D01*
X85807726Y-71343494D01*
X85807722Y-71343496D01*
X85611461Y-71445663D01*
X85606872Y-71448052D01*
X85602739Y-71451155D01*
X85602736Y-71451157D01*
X85425790Y-71584012D01*
X85421655Y-71587117D01*
X85261639Y-71754564D01*
X85258725Y-71758836D01*
X85258724Y-71758837D01*
X85243152Y-71781665D01*
X85131119Y-71945899D01*
X85033602Y-72155981D01*
X84971707Y-72379169D01*
X84947095Y-72609469D01*
X83820000Y-72609469D01*
X83820000Y-70731359D01*
X132055442Y-70731359D01*
X132061837Y-70742627D01*
X133337188Y-72017978D01*
X133351132Y-72025592D01*
X133352965Y-72025461D01*
X133359580Y-72021210D01*
X134637667Y-70743123D01*
X134644858Y-70729954D01*
X134637535Y-70719716D01*
X134577298Y-70670413D01*
X134570326Y-70665457D01*
X134332560Y-70519754D01*
X134324990Y-70515796D01*
X134069657Y-70403714D01*
X134061597Y-70400812D01*
X133793432Y-70324424D01*
X133785054Y-70322642D01*
X133508998Y-70283353D01*
X133500451Y-70282726D01*
X133221614Y-70281265D01*
X133213081Y-70281802D01*
X132936622Y-70318200D01*
X132928221Y-70319894D01*
X132659274Y-70393469D01*
X132651179Y-70396288D01*
X132394694Y-70505688D01*
X132387071Y-70509572D01*
X132147809Y-70652767D01*
X132140771Y-70657658D01*
X132063912Y-70719233D01*
X132055442Y-70731359D01*
X83820000Y-70731359D01*
X83820000Y-68580000D01*
X85046502Y-68580000D01*
X85066457Y-68808087D01*
X85067881Y-68813400D01*
X85067881Y-68813402D01*
X85105898Y-68955280D01*
X85125716Y-69029243D01*
X85128039Y-69034224D01*
X85128039Y-69034225D01*
X85220151Y-69231762D01*
X85220154Y-69231767D01*
X85222477Y-69236749D01*
X85261066Y-69291859D01*
X85305035Y-69354653D01*
X85353802Y-69424300D01*
X85515700Y-69586198D01*
X85520208Y-69589355D01*
X85520211Y-69589357D01*
X85528756Y-69595340D01*
X85703251Y-69717523D01*
X85708233Y-69719846D01*
X85708238Y-69719849D01*
X85905775Y-69811961D01*
X85910757Y-69814284D01*
X85916065Y-69815706D01*
X85916067Y-69815707D01*
X86126598Y-69872119D01*
X86126600Y-69872119D01*
X86131913Y-69873543D01*
X86360000Y-69893498D01*
X86588087Y-69873543D01*
X86593400Y-69872119D01*
X86593402Y-69872119D01*
X86803933Y-69815707D01*
X86803935Y-69815706D01*
X86809243Y-69814284D01*
X86814225Y-69811961D01*
X87011762Y-69719849D01*
X87011767Y-69719846D01*
X87016749Y-69717523D01*
X87191244Y-69595340D01*
X87199789Y-69589357D01*
X87199792Y-69589355D01*
X87204300Y-69586198D01*
X87366198Y-69424300D01*
X87414966Y-69354653D01*
X87458934Y-69291859D01*
X87497523Y-69236749D01*
X87499846Y-69231767D01*
X87499849Y-69231762D01*
X87591961Y-69034225D01*
X87591961Y-69034224D01*
X87594284Y-69029243D01*
X87614103Y-68955280D01*
X87652119Y-68813402D01*
X87652119Y-68813400D01*
X87653543Y-68808087D01*
X87673498Y-68580000D01*
X95206502Y-68580000D01*
X95226457Y-68808087D01*
X95227881Y-68813400D01*
X95227881Y-68813402D01*
X95265898Y-68955280D01*
X95285716Y-69029243D01*
X95288039Y-69034224D01*
X95288039Y-69034225D01*
X95380151Y-69231762D01*
X95380154Y-69231767D01*
X95382477Y-69236749D01*
X95421066Y-69291859D01*
X95465035Y-69354653D01*
X95513802Y-69424300D01*
X95675700Y-69586198D01*
X95680208Y-69589355D01*
X95680211Y-69589357D01*
X95688756Y-69595340D01*
X95863251Y-69717523D01*
X95868233Y-69719846D01*
X95868238Y-69719849D01*
X96065775Y-69811961D01*
X96070757Y-69814284D01*
X96076065Y-69815706D01*
X96076067Y-69815707D01*
X96286598Y-69872119D01*
X96286600Y-69872119D01*
X96291913Y-69873543D01*
X96520000Y-69893498D01*
X96748087Y-69873543D01*
X96753400Y-69872119D01*
X96753402Y-69872119D01*
X96963933Y-69815707D01*
X96963935Y-69815706D01*
X96969243Y-69814284D01*
X96974225Y-69811961D01*
X97171762Y-69719849D01*
X97171767Y-69719846D01*
X97176749Y-69717523D01*
X97351244Y-69595340D01*
X97359789Y-69589357D01*
X97359792Y-69589355D01*
X97364300Y-69586198D01*
X97526198Y-69424300D01*
X97574966Y-69354653D01*
X97618934Y-69291859D01*
X97657523Y-69236749D01*
X97659846Y-69231767D01*
X97659849Y-69231762D01*
X97751961Y-69034225D01*
X97751961Y-69034224D01*
X97754284Y-69029243D01*
X97774103Y-68955280D01*
X97812119Y-68813402D01*
X97812119Y-68813400D01*
X97813543Y-68808087D01*
X97833498Y-68580000D01*
X97813543Y-68351913D01*
X97766220Y-68175301D01*
X97755707Y-68136067D01*
X97755706Y-68136065D01*
X97754284Y-68130757D01*
X97751961Y-68125775D01*
X97659849Y-67928238D01*
X97659846Y-67928233D01*
X97657523Y-67923251D01*
X97551523Y-67771868D01*
X97529357Y-67740211D01*
X97529355Y-67740208D01*
X97526198Y-67735700D01*
X97364300Y-67573802D01*
X97359792Y-67570645D01*
X97359789Y-67570643D01*
X97208932Y-67465012D01*
X97176749Y-67442477D01*
X97171767Y-67440154D01*
X97171762Y-67440151D01*
X96974225Y-67348039D01*
X96974224Y-67348039D01*
X96969243Y-67345716D01*
X96963935Y-67344294D01*
X96963933Y-67344293D01*
X96753402Y-67287881D01*
X96753400Y-67287881D01*
X96748087Y-67286457D01*
X96520000Y-67266502D01*
X96291913Y-67286457D01*
X96286600Y-67287881D01*
X96286598Y-67287881D01*
X96076067Y-67344293D01*
X96076065Y-67344294D01*
X96070757Y-67345716D01*
X96065776Y-67348039D01*
X96065775Y-67348039D01*
X95868238Y-67440151D01*
X95868233Y-67440154D01*
X95863251Y-67442477D01*
X95831068Y-67465012D01*
X95680211Y-67570643D01*
X95680208Y-67570645D01*
X95675700Y-67573802D01*
X95513802Y-67735700D01*
X95510645Y-67740208D01*
X95510643Y-67740211D01*
X95488477Y-67771868D01*
X95382477Y-67923251D01*
X95380154Y-67928233D01*
X95380151Y-67928238D01*
X95288039Y-68125775D01*
X95285716Y-68130757D01*
X95284294Y-68136065D01*
X95284293Y-68136067D01*
X95273780Y-68175301D01*
X95226457Y-68351913D01*
X95206502Y-68580000D01*
X87673498Y-68580000D01*
X87653556Y-68352064D01*
X87667545Y-68282460D01*
X87689982Y-68251988D01*
X89888520Y-66053450D01*
X89894785Y-66047596D01*
X89899190Y-66043753D01*
X89938385Y-66009561D01*
X89975129Y-65957280D01*
X89979061Y-65951986D01*
X90013791Y-65907693D01*
X90018476Y-65901718D01*
X90021599Y-65894802D01*
X90022983Y-65892516D01*
X90031357Y-65877835D01*
X90032622Y-65875475D01*
X90036990Y-65869261D01*
X90060203Y-65809723D01*
X90062759Y-65803642D01*
X90085918Y-65752352D01*
X90089045Y-65745427D01*
X90090429Y-65737960D01*
X90091230Y-65735405D01*
X90095859Y-65719152D01*
X90096522Y-65716572D01*
X90099282Y-65709491D01*
X90107622Y-65646139D01*
X90108653Y-65639632D01*
X90108933Y-65638124D01*
X90120296Y-65576814D01*
X90116709Y-65514608D01*
X90116500Y-65507354D01*
X90116500Y-64946132D01*
X90129983Y-64890400D01*
X90131643Y-64887902D01*
X90134722Y-64879798D01*
X90193555Y-64724920D01*
X90193556Y-64724918D01*
X90196055Y-64718338D01*
X90197792Y-64705978D01*
X90220748Y-64542639D01*
X90220748Y-64542636D01*
X90221299Y-64538717D01*
X90221616Y-64516000D01*
X90201397Y-64335745D01*
X90199080Y-64329091D01*
X90144064Y-64171106D01*
X90144062Y-64171103D01*
X90141745Y-64164448D01*
X90045626Y-64010624D01*
X90043020Y-64008000D01*
X95206502Y-64008000D01*
X95226457Y-64236087D01*
X95227881Y-64241400D01*
X95227881Y-64241402D01*
X95251378Y-64329091D01*
X95285716Y-64457243D01*
X95288039Y-64462224D01*
X95288039Y-64462225D01*
X95380151Y-64659762D01*
X95380154Y-64659767D01*
X95382477Y-64664749D01*
X95436739Y-64742243D01*
X95510466Y-64847535D01*
X95513802Y-64852300D01*
X95675700Y-65014198D01*
X95680208Y-65017355D01*
X95680211Y-65017357D01*
X95724595Y-65048435D01*
X95863251Y-65145523D01*
X95868233Y-65147846D01*
X95868238Y-65147849D01*
X96062706Y-65238530D01*
X96070757Y-65242284D01*
X96076065Y-65243706D01*
X96076067Y-65243707D01*
X96286598Y-65300119D01*
X96286600Y-65300119D01*
X96291913Y-65301543D01*
X96520000Y-65321498D01*
X96748087Y-65301543D01*
X96753400Y-65300119D01*
X96753402Y-65300119D01*
X96963933Y-65243707D01*
X96963935Y-65243706D01*
X96969243Y-65242284D01*
X96977294Y-65238530D01*
X97171762Y-65147849D01*
X97171767Y-65147846D01*
X97176749Y-65145523D01*
X97315405Y-65048435D01*
X97359789Y-65017357D01*
X97359792Y-65017355D01*
X97364300Y-65014198D01*
X97526198Y-64852300D01*
X97529535Y-64847535D01*
X97603261Y-64742243D01*
X97657523Y-64664749D01*
X97659846Y-64659767D01*
X97659849Y-64659762D01*
X97751961Y-64462225D01*
X97751961Y-64462224D01*
X97754284Y-64457243D01*
X97788623Y-64329091D01*
X97812119Y-64241402D01*
X97812119Y-64241400D01*
X97813543Y-64236087D01*
X97833498Y-64008000D01*
X97813543Y-63779913D01*
X97792972Y-63703140D01*
X97755707Y-63564067D01*
X97755706Y-63564065D01*
X97754284Y-63558757D01*
X97747600Y-63544422D01*
X97659849Y-63356238D01*
X97659846Y-63356233D01*
X97657523Y-63351251D01*
X97526198Y-63163700D01*
X97364300Y-63001802D01*
X97359792Y-62998645D01*
X97359789Y-62998643D01*
X97261898Y-62930099D01*
X97176749Y-62870477D01*
X97171767Y-62868154D01*
X97171762Y-62868151D01*
X96974225Y-62776039D01*
X96974224Y-62776039D01*
X96969243Y-62773716D01*
X96963935Y-62772294D01*
X96963933Y-62772293D01*
X96753402Y-62715881D01*
X96753400Y-62715881D01*
X96748087Y-62714457D01*
X96520000Y-62694502D01*
X96291913Y-62714457D01*
X96286600Y-62715881D01*
X96286598Y-62715881D01*
X96076067Y-62772293D01*
X96076065Y-62772294D01*
X96070757Y-62773716D01*
X96065776Y-62776039D01*
X96065775Y-62776039D01*
X95868238Y-62868151D01*
X95868233Y-62868154D01*
X95863251Y-62870477D01*
X95778102Y-62930099D01*
X95680211Y-62998643D01*
X95680208Y-62998645D01*
X95675700Y-63001802D01*
X95513802Y-63163700D01*
X95382477Y-63351251D01*
X95380154Y-63356233D01*
X95380151Y-63356238D01*
X95292400Y-63544422D01*
X95285716Y-63558757D01*
X95284294Y-63564065D01*
X95284293Y-63564067D01*
X95247028Y-63703140D01*
X95226457Y-63779913D01*
X95206502Y-64008000D01*
X90043020Y-64008000D01*
X90039169Y-64004122D01*
X89922778Y-63886915D01*
X89922774Y-63886912D01*
X89917815Y-63881918D01*
X89906697Y-63874862D01*
X89858538Y-63844300D01*
X89764666Y-63784727D01*
X89730340Y-63772504D01*
X89600425Y-63726243D01*
X89600420Y-63726242D01*
X89593790Y-63723881D01*
X89586802Y-63723048D01*
X89586799Y-63723047D01*
X89463698Y-63708368D01*
X89413680Y-63702404D01*
X89406677Y-63703140D01*
X89406676Y-63703140D01*
X89240288Y-63720628D01*
X89240286Y-63720629D01*
X89233288Y-63721364D01*
X89061579Y-63779818D01*
X89055575Y-63783512D01*
X88913095Y-63871166D01*
X88913092Y-63871168D01*
X88907088Y-63874862D01*
X88902053Y-63879793D01*
X88902050Y-63879795D01*
X88785602Y-63993830D01*
X88777493Y-64001771D01*
X88679235Y-64154238D01*
X88676826Y-64160858D01*
X88676824Y-64160861D01*
X88619606Y-64318066D01*
X88617197Y-64324685D01*
X88594463Y-64504640D01*
X88612163Y-64685160D01*
X88669418Y-64857273D01*
X88673065Y-64863296D01*
X88673066Y-64863297D01*
X88681276Y-64876853D01*
X88699500Y-64942124D01*
X88699500Y-65186340D01*
X88679498Y-65254461D01*
X88662595Y-65275435D01*
X86688012Y-67250018D01*
X86625700Y-67284044D01*
X86587937Y-67286444D01*
X86360000Y-67266502D01*
X86131913Y-67286457D01*
X86126600Y-67287881D01*
X86126598Y-67287881D01*
X85916067Y-67344293D01*
X85916065Y-67344294D01*
X85910757Y-67345716D01*
X85905776Y-67348039D01*
X85905775Y-67348039D01*
X85708238Y-67440151D01*
X85708233Y-67440154D01*
X85703251Y-67442477D01*
X85671068Y-67465012D01*
X85520211Y-67570643D01*
X85520208Y-67570645D01*
X85515700Y-67573802D01*
X85353802Y-67735700D01*
X85350645Y-67740208D01*
X85350643Y-67740211D01*
X85328477Y-67771868D01*
X85222477Y-67923251D01*
X85220154Y-67928233D01*
X85220151Y-67928238D01*
X85128039Y-68125775D01*
X85125716Y-68130757D01*
X85124294Y-68136065D01*
X85124293Y-68136067D01*
X85113780Y-68175301D01*
X85066457Y-68351913D01*
X85046502Y-68580000D01*
X83820000Y-68580000D01*
X83820000Y-64008000D01*
X85046502Y-64008000D01*
X85066457Y-64236087D01*
X85067881Y-64241400D01*
X85067881Y-64241402D01*
X85091378Y-64329091D01*
X85125716Y-64457243D01*
X85128039Y-64462224D01*
X85128039Y-64462225D01*
X85220151Y-64659762D01*
X85220154Y-64659767D01*
X85222477Y-64664749D01*
X85276739Y-64742243D01*
X85350466Y-64847535D01*
X85353802Y-64852300D01*
X85515700Y-65014198D01*
X85520208Y-65017355D01*
X85520211Y-65017357D01*
X85564595Y-65048435D01*
X85703251Y-65145523D01*
X85708233Y-65147846D01*
X85708238Y-65147849D01*
X85902706Y-65238530D01*
X85910757Y-65242284D01*
X85916065Y-65243706D01*
X85916067Y-65243707D01*
X86126598Y-65300119D01*
X86126600Y-65300119D01*
X86131913Y-65301543D01*
X86360000Y-65321498D01*
X86588087Y-65301543D01*
X86593400Y-65300119D01*
X86593402Y-65300119D01*
X86803933Y-65243707D01*
X86803935Y-65243706D01*
X86809243Y-65242284D01*
X86817294Y-65238530D01*
X87011762Y-65147849D01*
X87011767Y-65147846D01*
X87016749Y-65145523D01*
X87155405Y-65048435D01*
X87199789Y-65017357D01*
X87199792Y-65017355D01*
X87204300Y-65014198D01*
X87366198Y-64852300D01*
X87369535Y-64847535D01*
X87443261Y-64742243D01*
X87497523Y-64664749D01*
X87499846Y-64659767D01*
X87499849Y-64659762D01*
X87591961Y-64462225D01*
X87591961Y-64462224D01*
X87594284Y-64457243D01*
X87628623Y-64329091D01*
X87652119Y-64241402D01*
X87652119Y-64241400D01*
X87653543Y-64236087D01*
X87673498Y-64008000D01*
X87653543Y-63779913D01*
X87632972Y-63703140D01*
X87595707Y-63564067D01*
X87595706Y-63564065D01*
X87594284Y-63558757D01*
X87587600Y-63544422D01*
X87499849Y-63356238D01*
X87499846Y-63356233D01*
X87497523Y-63351251D01*
X87366198Y-63163700D01*
X87204300Y-63001802D01*
X87199792Y-62998645D01*
X87199789Y-62998643D01*
X87101898Y-62930099D01*
X87016749Y-62870477D01*
X87011767Y-62868154D01*
X87011762Y-62868151D01*
X86814225Y-62776039D01*
X86814224Y-62776039D01*
X86809243Y-62773716D01*
X86803935Y-62772294D01*
X86803933Y-62772293D01*
X86593402Y-62715881D01*
X86593400Y-62715881D01*
X86588087Y-62714457D01*
X86360000Y-62694502D01*
X86131913Y-62714457D01*
X86126600Y-62715881D01*
X86126598Y-62715881D01*
X85916067Y-62772293D01*
X85916065Y-62772294D01*
X85910757Y-62773716D01*
X85905776Y-62776039D01*
X85905775Y-62776039D01*
X85708238Y-62868151D01*
X85708233Y-62868154D01*
X85703251Y-62870477D01*
X85618102Y-62930099D01*
X85520211Y-62998643D01*
X85520208Y-62998645D01*
X85515700Y-63001802D01*
X85353802Y-63163700D01*
X85222477Y-63351251D01*
X85220154Y-63356233D01*
X85220151Y-63356238D01*
X85132400Y-63544422D01*
X85125716Y-63558757D01*
X85124294Y-63564065D01*
X85124293Y-63564067D01*
X85087028Y-63703140D01*
X85066457Y-63779913D01*
X85046502Y-64008000D01*
X83820000Y-64008000D01*
X83820000Y-61771354D01*
X85350500Y-61771354D01*
X85357255Y-61833536D01*
X85408385Y-61969925D01*
X85495739Y-62086481D01*
X85612295Y-62173835D01*
X85748684Y-62224965D01*
X85810866Y-62231720D01*
X87407134Y-62231720D01*
X87469316Y-62224965D01*
X87605705Y-62173835D01*
X87722261Y-62086481D01*
X87809615Y-61969925D01*
X87860745Y-61833536D01*
X87867500Y-61771354D01*
X87867500Y-61239742D01*
X92998037Y-61239742D01*
X93040928Y-61399815D01*
X93044674Y-61410107D01*
X93133056Y-61599641D01*
X93138534Y-61609127D01*
X93258476Y-61780423D01*
X93265530Y-61788830D01*
X93413388Y-61936688D01*
X93421796Y-61943744D01*
X93593088Y-62063684D01*
X93602584Y-62069167D01*
X93792113Y-62157546D01*
X93802405Y-62161292D01*
X93957503Y-62202850D01*
X93971599Y-62202514D01*
X93975000Y-62194572D01*
X93975000Y-62189423D01*
X94483000Y-62189423D01*
X94486973Y-62202954D01*
X94495522Y-62204183D01*
X94655595Y-62161292D01*
X94665887Y-62157546D01*
X94855416Y-62069167D01*
X94864912Y-62063684D01*
X95036204Y-61943744D01*
X95044612Y-61936688D01*
X95192470Y-61788830D01*
X95199524Y-61780423D01*
X95319466Y-61609127D01*
X95324944Y-61599641D01*
X95413326Y-61410107D01*
X95417072Y-61399815D01*
X95458630Y-61244717D01*
X95458294Y-61230621D01*
X95450352Y-61227220D01*
X94501115Y-61227220D01*
X94485876Y-61231695D01*
X94484671Y-61233085D01*
X94483000Y-61240768D01*
X94483000Y-62189423D01*
X93975000Y-62189423D01*
X93975000Y-61245335D01*
X93970525Y-61230096D01*
X93969135Y-61228891D01*
X93961452Y-61227220D01*
X93012797Y-61227220D01*
X92999266Y-61231193D01*
X92998037Y-61239742D01*
X87867500Y-61239742D01*
X87867500Y-60175086D01*
X87860745Y-60112904D01*
X87809615Y-59976515D01*
X87722261Y-59859959D01*
X87691124Y-59836623D01*
X87610003Y-59775826D01*
X87567488Y-59718967D01*
X87562462Y-59648148D01*
X87596522Y-59585855D01*
X87610003Y-59574174D01*
X87715080Y-59495423D01*
X87715081Y-59495422D01*
X87722261Y-59490041D01*
X87809615Y-59373485D01*
X87860745Y-59237096D01*
X87867500Y-59174914D01*
X87867500Y-58643302D01*
X92998037Y-58643302D01*
X93040928Y-58803375D01*
X93044674Y-58813667D01*
X93133056Y-59003201D01*
X93138534Y-59012687D01*
X93258476Y-59183983D01*
X93265530Y-59192390D01*
X93413388Y-59340248D01*
X93421796Y-59347304D01*
X93593088Y-59467244D01*
X93602584Y-59472727D01*
X93791468Y-59560805D01*
X93844753Y-59607723D01*
X93864214Y-59676000D01*
X93843672Y-59743960D01*
X93791468Y-59789195D01*
X93602579Y-59877276D01*
X93593093Y-59882754D01*
X93421797Y-60002696D01*
X93413390Y-60009750D01*
X93265530Y-60157610D01*
X93258476Y-60166017D01*
X93138534Y-60337313D01*
X93133056Y-60346799D01*
X93044674Y-60536333D01*
X93040928Y-60546625D01*
X92999370Y-60701723D01*
X92999706Y-60715819D01*
X93007648Y-60719220D01*
X95445203Y-60719220D01*
X95458734Y-60715247D01*
X95459963Y-60706698D01*
X95417072Y-60546625D01*
X95413326Y-60536333D01*
X95324944Y-60346799D01*
X95319466Y-60337313D01*
X95199524Y-60166017D01*
X95192470Y-60157610D01*
X95044612Y-60009752D01*
X95036204Y-60002696D01*
X94864912Y-59882756D01*
X94855416Y-59877273D01*
X94666532Y-59789195D01*
X94613247Y-59742277D01*
X94593786Y-59674000D01*
X94614328Y-59606040D01*
X94666532Y-59560805D01*
X94855416Y-59472727D01*
X94864912Y-59467244D01*
X95036204Y-59347304D01*
X95044612Y-59340248D01*
X95192470Y-59192390D01*
X95199524Y-59183983D01*
X95319466Y-59012687D01*
X95324944Y-59003201D01*
X95413326Y-58813667D01*
X95417072Y-58803375D01*
X95458630Y-58648277D01*
X95458294Y-58634181D01*
X95450352Y-58630780D01*
X93012797Y-58630780D01*
X92999266Y-58634753D01*
X92998037Y-58643302D01*
X87867500Y-58643302D01*
X87867500Y-58105283D01*
X92999370Y-58105283D01*
X92999706Y-58119379D01*
X93007648Y-58122780D01*
X93956885Y-58122780D01*
X93972124Y-58118305D01*
X93973329Y-58116915D01*
X93975000Y-58109232D01*
X93975000Y-58104665D01*
X94483000Y-58104665D01*
X94487475Y-58119904D01*
X94488865Y-58121109D01*
X94496548Y-58122780D01*
X95445203Y-58122780D01*
X95458734Y-58118807D01*
X95459963Y-58110258D01*
X95417072Y-57950185D01*
X95413326Y-57939893D01*
X95324944Y-57750359D01*
X95319466Y-57740873D01*
X95199524Y-57569577D01*
X95192470Y-57561170D01*
X95044612Y-57413312D01*
X95036204Y-57406256D01*
X94864912Y-57286316D01*
X94855416Y-57280833D01*
X94665887Y-57192454D01*
X94655595Y-57188708D01*
X94500497Y-57147150D01*
X94486401Y-57147486D01*
X94483000Y-57155428D01*
X94483000Y-58104665D01*
X93975000Y-58104665D01*
X93975000Y-57160577D01*
X93971027Y-57147046D01*
X93962478Y-57145817D01*
X93802405Y-57188708D01*
X93792113Y-57192454D01*
X93602579Y-57280836D01*
X93593093Y-57286314D01*
X93421797Y-57406256D01*
X93413390Y-57413310D01*
X93265530Y-57561170D01*
X93258476Y-57569577D01*
X93138534Y-57740873D01*
X93133056Y-57750359D01*
X93044674Y-57939893D01*
X93040928Y-57950185D01*
X92999370Y-58105283D01*
X87867500Y-58105283D01*
X87867500Y-57578646D01*
X87860745Y-57516464D01*
X87809615Y-57380075D01*
X87722261Y-57263519D01*
X87605705Y-57176165D01*
X87469316Y-57125035D01*
X87407134Y-57118280D01*
X85810866Y-57118280D01*
X85748684Y-57125035D01*
X85612295Y-57176165D01*
X85495739Y-57263519D01*
X85408385Y-57380075D01*
X85357255Y-57516464D01*
X85350500Y-57578646D01*
X85350500Y-59174914D01*
X85357255Y-59237096D01*
X85408385Y-59373485D01*
X85495739Y-59490041D01*
X85502919Y-59495422D01*
X85502920Y-59495423D01*
X85607997Y-59574174D01*
X85650512Y-59631033D01*
X85655538Y-59701852D01*
X85621478Y-59764145D01*
X85607997Y-59775826D01*
X85526876Y-59836623D01*
X85495739Y-59859959D01*
X85408385Y-59976515D01*
X85357255Y-60112904D01*
X85350500Y-60175086D01*
X85350500Y-61771354D01*
X83820000Y-61771354D01*
X83820000Y-55372000D01*
X85046502Y-55372000D01*
X85066457Y-55600087D01*
X85067881Y-55605400D01*
X85067881Y-55605402D01*
X85118602Y-55794692D01*
X85125716Y-55821243D01*
X85128039Y-55826224D01*
X85128039Y-55826225D01*
X85220151Y-56023762D01*
X85220154Y-56023767D01*
X85222477Y-56028749D01*
X85265713Y-56090496D01*
X85343365Y-56201394D01*
X85353802Y-56216300D01*
X85515700Y-56378198D01*
X85520208Y-56381355D01*
X85520211Y-56381357D01*
X85542710Y-56397111D01*
X85703251Y-56509523D01*
X85708233Y-56511846D01*
X85708238Y-56511849D01*
X85877774Y-56590904D01*
X85910757Y-56606284D01*
X85916065Y-56607706D01*
X85916067Y-56607707D01*
X86126598Y-56664119D01*
X86126600Y-56664119D01*
X86131913Y-56665543D01*
X86360000Y-56685498D01*
X86588087Y-56665543D01*
X86593400Y-56664119D01*
X86593402Y-56664119D01*
X86803933Y-56607707D01*
X86803935Y-56607706D01*
X86809243Y-56606284D01*
X86842226Y-56590904D01*
X87011762Y-56511849D01*
X87011767Y-56511846D01*
X87016749Y-56509523D01*
X87177290Y-56397111D01*
X87199789Y-56381357D01*
X87199792Y-56381355D01*
X87204300Y-56378198D01*
X87366198Y-56216300D01*
X87376636Y-56201394D01*
X87454287Y-56090496D01*
X87497523Y-56028749D01*
X87499846Y-56023767D01*
X87499849Y-56023762D01*
X87591961Y-55826225D01*
X87591961Y-55826224D01*
X87594284Y-55821243D01*
X87601399Y-55794692D01*
X87652119Y-55605402D01*
X87652119Y-55605400D01*
X87653543Y-55600087D01*
X87673498Y-55372000D01*
X87653543Y-55143913D01*
X87638306Y-55087047D01*
X87595707Y-54928067D01*
X87595706Y-54928065D01*
X87594284Y-54922757D01*
X87591961Y-54917775D01*
X87499849Y-54720238D01*
X87499846Y-54720233D01*
X87497523Y-54715251D01*
X87366198Y-54527700D01*
X87204300Y-54365802D01*
X87199792Y-54362645D01*
X87199789Y-54362643D01*
X87121611Y-54307902D01*
X87016749Y-54234477D01*
X87011767Y-54232154D01*
X87011762Y-54232151D01*
X86814225Y-54140039D01*
X86814224Y-54140039D01*
X86809243Y-54137716D01*
X86803935Y-54136294D01*
X86803933Y-54136293D01*
X86593402Y-54079881D01*
X86593400Y-54079881D01*
X86588087Y-54078457D01*
X86360000Y-54058502D01*
X86131913Y-54078457D01*
X86126600Y-54079881D01*
X86126598Y-54079881D01*
X85916067Y-54136293D01*
X85916065Y-54136294D01*
X85910757Y-54137716D01*
X85905776Y-54140039D01*
X85905775Y-54140039D01*
X85708238Y-54232151D01*
X85708233Y-54232154D01*
X85703251Y-54234477D01*
X85598389Y-54307902D01*
X85520211Y-54362643D01*
X85520208Y-54362645D01*
X85515700Y-54365802D01*
X85353802Y-54527700D01*
X85222477Y-54715251D01*
X85220154Y-54720233D01*
X85220151Y-54720238D01*
X85128039Y-54917775D01*
X85125716Y-54922757D01*
X85124294Y-54928065D01*
X85124293Y-54928067D01*
X85081694Y-55087047D01*
X85066457Y-55143913D01*
X85046502Y-55372000D01*
X83820000Y-55372000D01*
X83820000Y-47253134D01*
X88176500Y-47253134D01*
X88183255Y-47315316D01*
X88234385Y-47451705D01*
X88321739Y-47568261D01*
X88438295Y-47655615D01*
X88574684Y-47706745D01*
X88636866Y-47713500D01*
X90433134Y-47713500D01*
X90495316Y-47706745D01*
X90631705Y-47655615D01*
X90748261Y-47568261D01*
X90835615Y-47451705D01*
X90857945Y-47392139D01*
X90879798Y-47333848D01*
X90922440Y-47277084D01*
X90989001Y-47252384D01*
X91058350Y-47267592D01*
X91093017Y-47295580D01*
X91118218Y-47324673D01*
X91125580Y-47331883D01*
X91289434Y-47467916D01*
X91297881Y-47473831D01*
X91481756Y-47581279D01*
X91491042Y-47585729D01*
X91690001Y-47661703D01*
X91699899Y-47664579D01*
X91803250Y-47685606D01*
X91817299Y-47684410D01*
X91821000Y-47674065D01*
X91821000Y-47673517D01*
X92329000Y-47673517D01*
X92333064Y-47687359D01*
X92346478Y-47689393D01*
X92353184Y-47688534D01*
X92363262Y-47686392D01*
X92567255Y-47625191D01*
X92576842Y-47621433D01*
X92768095Y-47527739D01*
X92776945Y-47522464D01*
X92950328Y-47398792D01*
X92958200Y-47392139D01*
X93109052Y-47241812D01*
X93115730Y-47233965D01*
X93243022Y-47056819D01*
X93244279Y-47057722D01*
X93291373Y-47014362D01*
X93361311Y-47002145D01*
X93426751Y-47029678D01*
X93454579Y-47061511D01*
X93459828Y-47070077D01*
X93514987Y-47160088D01*
X93661250Y-47328938D01*
X93833126Y-47471632D01*
X94026000Y-47584338D01*
X94030825Y-47586180D01*
X94030826Y-47586181D01*
X94057888Y-47596515D01*
X94234692Y-47664030D01*
X94239760Y-47665061D01*
X94239763Y-47665062D01*
X94299891Y-47677295D01*
X94453597Y-47708567D01*
X94458772Y-47708757D01*
X94458774Y-47708757D01*
X94671673Y-47716564D01*
X94671677Y-47716564D01*
X94676837Y-47716753D01*
X94681957Y-47716097D01*
X94681959Y-47716097D01*
X94893288Y-47689025D01*
X94893289Y-47689025D01*
X94898416Y-47688368D01*
X94903366Y-47686883D01*
X95107429Y-47625661D01*
X95107434Y-47625659D01*
X95112384Y-47624174D01*
X95312994Y-47525896D01*
X95494860Y-47396173D01*
X95526788Y-47364357D01*
X95595805Y-47295580D01*
X95653096Y-47238489D01*
X95684498Y-47194789D01*
X95783453Y-47057077D01*
X95784776Y-47058028D01*
X95831645Y-47014857D01*
X95901580Y-47002625D01*
X95967026Y-47030144D01*
X95994875Y-47061994D01*
X95999828Y-47070077D01*
X96054987Y-47160088D01*
X96201250Y-47328938D01*
X96373126Y-47471632D01*
X96566000Y-47584338D01*
X96570825Y-47586180D01*
X96570826Y-47586181D01*
X96597888Y-47596515D01*
X96774692Y-47664030D01*
X96779760Y-47665061D01*
X96779763Y-47665062D01*
X96839891Y-47677295D01*
X96993597Y-47708567D01*
X96998772Y-47708757D01*
X96998774Y-47708757D01*
X97211673Y-47716564D01*
X97211677Y-47716564D01*
X97216837Y-47716753D01*
X97221957Y-47716097D01*
X97221959Y-47716097D01*
X97433288Y-47689025D01*
X97433289Y-47689025D01*
X97438416Y-47688368D01*
X97443366Y-47686883D01*
X97647429Y-47625661D01*
X97647434Y-47625659D01*
X97652384Y-47624174D01*
X97852994Y-47525896D01*
X98034860Y-47396173D01*
X98066788Y-47364357D01*
X98135805Y-47295580D01*
X98193096Y-47238489D01*
X98224498Y-47194789D01*
X98323453Y-47057077D01*
X98324776Y-47058028D01*
X98371645Y-47014857D01*
X98441580Y-47002625D01*
X98507026Y-47030144D01*
X98534875Y-47061994D01*
X98539828Y-47070077D01*
X98594987Y-47160088D01*
X98741250Y-47328938D01*
X98913126Y-47471632D01*
X99106000Y-47584338D01*
X99110825Y-47586180D01*
X99110826Y-47586181D01*
X99137888Y-47596515D01*
X99314692Y-47664030D01*
X99319760Y-47665061D01*
X99319763Y-47665062D01*
X99379891Y-47677295D01*
X99533597Y-47708567D01*
X99538772Y-47708757D01*
X99538774Y-47708757D01*
X99751673Y-47716564D01*
X99751677Y-47716564D01*
X99756837Y-47716753D01*
X99761957Y-47716097D01*
X99761959Y-47716097D01*
X99959589Y-47690780D01*
X100029699Y-47701965D01*
X100064694Y-47726664D01*
X102214434Y-49876405D01*
X102248460Y-49938717D01*
X102243395Y-50009533D01*
X102200848Y-50066368D01*
X102134328Y-50091179D01*
X102125339Y-50091500D01*
X97564927Y-50091500D01*
X97556358Y-50091208D01*
X97506225Y-50087790D01*
X97506221Y-50087790D01*
X97498648Y-50087274D01*
X97435681Y-50098264D01*
X97429169Y-50099224D01*
X97365758Y-50106898D01*
X97358657Y-50109581D01*
X97356048Y-50110222D01*
X97339728Y-50114687D01*
X97337195Y-50115452D01*
X97329717Y-50116757D01*
X97271190Y-50142448D01*
X97265108Y-50144930D01*
X97244753Y-50152622D01*
X97212449Y-50164828D01*
X97212447Y-50164829D01*
X97205344Y-50167513D01*
X97199085Y-50171814D01*
X97196720Y-50173051D01*
X97181948Y-50181273D01*
X97179656Y-50182628D01*
X97172695Y-50185684D01*
X97166668Y-50190309D01*
X97166664Y-50190311D01*
X97121987Y-50224593D01*
X97116662Y-50228462D01*
X97097890Y-50241364D01*
X97075188Y-50256967D01*
X97064019Y-50264643D01*
X97058967Y-50270313D01*
X97058966Y-50270314D01*
X97022572Y-50311162D01*
X97017591Y-50316438D01*
X96697563Y-50636466D01*
X96649074Y-50666649D01*
X96561243Y-50696549D01*
X96561240Y-50696550D01*
X96554579Y-50698818D01*
X96548581Y-50702508D01*
X96548579Y-50702509D01*
X96406095Y-50790166D01*
X96406092Y-50790168D01*
X96400088Y-50793862D01*
X96395053Y-50798793D01*
X96395050Y-50798795D01*
X96374713Y-50818711D01*
X96270493Y-50920771D01*
X96172235Y-51073238D01*
X96169826Y-51079858D01*
X96169824Y-51079861D01*
X96131111Y-51186224D01*
X96101805Y-51232224D01*
X95426427Y-51907602D01*
X95377936Y-51937785D01*
X95290117Y-51967680D01*
X95290114Y-51967681D01*
X95283444Y-51969952D01*
X95277440Y-51973646D01*
X95134960Y-52061300D01*
X95134957Y-52061302D01*
X95128953Y-52064996D01*
X95123918Y-52069927D01*
X95123915Y-52069929D01*
X95040029Y-52152077D01*
X94999358Y-52191905D01*
X94901100Y-52344372D01*
X94898691Y-52350992D01*
X94898689Y-52350995D01*
X94873562Y-52420031D01*
X94839062Y-52514819D01*
X94816328Y-52694774D01*
X94834028Y-52875294D01*
X94891283Y-53047407D01*
X94894930Y-53053429D01*
X94894931Y-53053431D01*
X94969423Y-53176432D01*
X94985245Y-53202558D01*
X95111247Y-53333036D01*
X95160776Y-53365447D01*
X95231605Y-53411796D01*
X95277654Y-53465833D01*
X95287177Y-53536188D01*
X95257152Y-53600523D01*
X95251707Y-53606323D01*
X93776563Y-55081467D01*
X93728074Y-55111650D01*
X93633579Y-55143818D01*
X93627575Y-55147512D01*
X93485095Y-55235166D01*
X93485092Y-55235168D01*
X93479088Y-55238862D01*
X93474053Y-55243793D01*
X93474050Y-55243795D01*
X93373524Y-55342238D01*
X93349493Y-55365771D01*
X93251235Y-55518238D01*
X93248826Y-55524858D01*
X93248824Y-55524861D01*
X93195089Y-55672496D01*
X93189197Y-55688685D01*
X93166463Y-55868640D01*
X93184163Y-56049160D01*
X93241418Y-56221273D01*
X93245065Y-56227295D01*
X93245066Y-56227297D01*
X93302614Y-56322320D01*
X93335380Y-56376424D01*
X93461382Y-56506902D01*
X93467278Y-56510760D01*
X93589751Y-56590904D01*
X93613159Y-56606222D01*
X93619763Y-56608678D01*
X93619765Y-56608679D01*
X93776558Y-56666990D01*
X93776560Y-56666990D01*
X93783168Y-56669448D01*
X93866995Y-56680633D01*
X93955980Y-56692507D01*
X93955984Y-56692507D01*
X93962961Y-56693438D01*
X93969972Y-56692800D01*
X93969976Y-56692800D01*
X94112459Y-56679832D01*
X94143600Y-56676998D01*
X94150302Y-56674820D01*
X94150304Y-56674820D01*
X94309409Y-56623124D01*
X94309412Y-56623123D01*
X94316108Y-56620947D01*
X94471912Y-56528069D01*
X94603266Y-56402982D01*
X94703643Y-56251902D01*
X94751372Y-56126256D01*
X94780065Y-56081905D01*
X95080864Y-55781106D01*
X95143176Y-55747080D01*
X95213991Y-55752145D01*
X95270827Y-55794692D01*
X95285295Y-55821439D01*
X95285716Y-55821243D01*
X95380151Y-56023762D01*
X95380154Y-56023767D01*
X95382477Y-56028749D01*
X95425713Y-56090496D01*
X95503365Y-56201394D01*
X95513802Y-56216300D01*
X95675700Y-56378198D01*
X95680208Y-56381355D01*
X95680211Y-56381357D01*
X95702710Y-56397111D01*
X95863251Y-56509523D01*
X95868233Y-56511846D01*
X95868238Y-56511849D01*
X96037774Y-56590904D01*
X96070757Y-56606284D01*
X96076065Y-56607706D01*
X96076067Y-56607707D01*
X96286598Y-56664119D01*
X96286600Y-56664119D01*
X96291913Y-56665543D01*
X96520000Y-56685498D01*
X96748087Y-56665543D01*
X96753400Y-56664119D01*
X96753402Y-56664119D01*
X96963933Y-56607707D01*
X96963935Y-56607706D01*
X96969243Y-56606284D01*
X97002226Y-56590904D01*
X97171762Y-56511849D01*
X97171767Y-56511846D01*
X97176749Y-56509523D01*
X97337290Y-56397111D01*
X97359789Y-56381357D01*
X97359792Y-56381355D01*
X97364300Y-56378198D01*
X97526198Y-56216300D01*
X97536636Y-56201394D01*
X97614287Y-56090496D01*
X97669744Y-56046168D01*
X97740363Y-56038859D01*
X97803724Y-56070890D01*
X97839709Y-56132091D01*
X97843500Y-56162767D01*
X97843500Y-59438383D01*
X97843208Y-59446953D01*
X97839904Y-59495423D01*
X97839275Y-59504647D01*
X97840580Y-59512124D01*
X97840580Y-59512125D01*
X97850261Y-59567594D01*
X97851223Y-59574116D01*
X97858898Y-59637537D01*
X97861581Y-59644638D01*
X97862222Y-59647247D01*
X97866685Y-59663557D01*
X97867450Y-59666093D01*
X97868757Y-59673579D01*
X97871811Y-59680536D01*
X97894442Y-59732090D01*
X97896933Y-59738194D01*
X97919513Y-59797951D01*
X97923817Y-59804214D01*
X97925054Y-59806580D01*
X97933299Y-59821392D01*
X97934632Y-59823646D01*
X97937685Y-59830600D01*
X97973500Y-59877273D01*
X97976579Y-59881286D01*
X97980459Y-59886627D01*
X98012339Y-59933015D01*
X98012344Y-59933020D01*
X98016643Y-59939276D01*
X98022313Y-59944327D01*
X98022314Y-59944329D01*
X98063170Y-59980730D01*
X98068446Y-59985711D01*
X98764620Y-60681885D01*
X98798646Y-60744197D01*
X98801046Y-60781960D01*
X98781104Y-61009897D01*
X98801059Y-61237984D01*
X98802483Y-61243297D01*
X98802483Y-61243299D01*
X98847180Y-61410107D01*
X98860318Y-61459140D01*
X98862641Y-61464121D01*
X98862641Y-61464122D01*
X98954753Y-61661659D01*
X98954756Y-61661664D01*
X98957079Y-61666646D01*
X99088404Y-61854197D01*
X99250302Y-62016095D01*
X99254810Y-62019252D01*
X99254813Y-62019254D01*
X99326096Y-62069167D01*
X99437853Y-62147420D01*
X99442835Y-62149743D01*
X99442840Y-62149746D01*
X99477059Y-62165702D01*
X99530344Y-62212619D01*
X99549805Y-62280896D01*
X99529263Y-62348856D01*
X99477059Y-62394092D01*
X99442840Y-62410048D01*
X99442835Y-62410051D01*
X99437853Y-62412374D01*
X99371539Y-62458808D01*
X99254813Y-62540540D01*
X99254810Y-62540542D01*
X99250302Y-62543699D01*
X99088404Y-62705597D01*
X99085247Y-62710105D01*
X99085245Y-62710108D01*
X99048026Y-62763262D01*
X98957079Y-62893148D01*
X98954756Y-62898130D01*
X98954753Y-62898135D01*
X98907886Y-62998643D01*
X98860318Y-63100654D01*
X98801059Y-63321810D01*
X98781104Y-63549897D01*
X98801059Y-63777984D01*
X98802483Y-63783297D01*
X98802483Y-63783299D01*
X98827018Y-63874862D01*
X98860318Y-63999140D01*
X98862641Y-64004121D01*
X98862641Y-64004122D01*
X98954753Y-64201659D01*
X98954756Y-64201664D01*
X98957079Y-64206646D01*
X99088404Y-64394197D01*
X99250302Y-64556095D01*
X99254812Y-64559253D01*
X99254818Y-64559258D01*
X99304845Y-64594287D01*
X99349174Y-64649744D01*
X99356483Y-64720363D01*
X99324453Y-64783724D01*
X99263251Y-64819709D01*
X99232575Y-64823500D01*
X98981158Y-64823500D01*
X98921624Y-64806205D01*
X98920948Y-64807590D01*
X98914609Y-64804498D01*
X98908666Y-64800727D01*
X98892937Y-64795126D01*
X98744425Y-64742243D01*
X98744420Y-64742242D01*
X98737790Y-64739881D01*
X98730802Y-64739048D01*
X98730799Y-64739047D01*
X98607698Y-64724368D01*
X98557680Y-64718404D01*
X98550677Y-64719140D01*
X98550676Y-64719140D01*
X98384288Y-64736628D01*
X98384286Y-64736629D01*
X98377288Y-64737364D01*
X98205579Y-64795818D01*
X98160923Y-64823291D01*
X98057095Y-64887166D01*
X98057092Y-64887168D01*
X98051088Y-64890862D01*
X98046053Y-64895793D01*
X98046050Y-64895795D01*
X97929121Y-65010301D01*
X97921493Y-65017771D01*
X97823235Y-65170238D01*
X97820826Y-65176858D01*
X97820824Y-65176861D01*
X97763606Y-65334066D01*
X97761197Y-65340685D01*
X97738463Y-65520640D01*
X97756163Y-65701160D01*
X97813418Y-65873273D01*
X97862665Y-65954589D01*
X97875101Y-65975124D01*
X97893280Y-66043753D01*
X97873236Y-66108650D01*
X97827054Y-66180310D01*
X97827050Y-66180319D01*
X97823235Y-66186238D01*
X97761197Y-66356685D01*
X97738463Y-66536640D01*
X97756163Y-66717160D01*
X97813418Y-66889273D01*
X97817065Y-66895295D01*
X97817066Y-66895297D01*
X97895687Y-67025116D01*
X97907380Y-67044424D01*
X97912269Y-67049487D01*
X97912270Y-67049488D01*
X97927357Y-67065111D01*
X98033382Y-67174902D01*
X98039278Y-67178760D01*
X98178758Y-67270033D01*
X98185159Y-67274222D01*
X98191763Y-67276678D01*
X98191765Y-67276679D01*
X98348558Y-67334990D01*
X98348560Y-67334990D01*
X98355168Y-67337448D01*
X98417133Y-67345716D01*
X98527980Y-67360507D01*
X98527984Y-67360507D01*
X98534961Y-67361438D01*
X98541972Y-67360800D01*
X98541976Y-67360800D01*
X98684459Y-67347832D01*
X98715600Y-67344998D01*
X98722302Y-67342820D01*
X98722304Y-67342820D01*
X98881409Y-67291124D01*
X98881412Y-67291123D01*
X98888108Y-67288947D01*
X98912727Y-67274271D01*
X98977245Y-67256500D01*
X99285233Y-67256500D01*
X99353354Y-67276502D01*
X99399847Y-67330158D01*
X99409951Y-67400432D01*
X99380457Y-67465012D01*
X99357504Y-67485713D01*
X99236211Y-67570643D01*
X99236208Y-67570645D01*
X99231700Y-67573802D01*
X99069802Y-67735700D01*
X99066645Y-67740208D01*
X99066643Y-67740211D01*
X99044477Y-67771868D01*
X98938477Y-67923251D01*
X98936154Y-67928233D01*
X98936151Y-67928238D01*
X98844039Y-68125775D01*
X98841716Y-68130757D01*
X98840294Y-68136065D01*
X98840293Y-68136067D01*
X98829780Y-68175301D01*
X98782457Y-68351913D01*
X98762502Y-68580000D01*
X98782457Y-68808087D01*
X98783881Y-68813400D01*
X98783881Y-68813402D01*
X98821898Y-68955280D01*
X98841716Y-69029243D01*
X98844039Y-69034224D01*
X98844039Y-69034225D01*
X98936151Y-69231762D01*
X98936154Y-69231767D01*
X98938477Y-69236749D01*
X98977066Y-69291859D01*
X99021035Y-69354653D01*
X99069802Y-69424300D01*
X99231700Y-69586198D01*
X99236208Y-69589355D01*
X99236211Y-69589357D01*
X99244756Y-69595340D01*
X99419251Y-69717523D01*
X99424233Y-69719846D01*
X99424238Y-69719849D01*
X99621775Y-69811961D01*
X99626757Y-69814284D01*
X99632065Y-69815706D01*
X99632067Y-69815707D01*
X99842598Y-69872119D01*
X99842600Y-69872119D01*
X99847913Y-69873543D01*
X100076000Y-69893498D01*
X100304087Y-69873543D01*
X100309400Y-69872119D01*
X100309402Y-69872119D01*
X100519933Y-69815707D01*
X100519935Y-69815706D01*
X100525243Y-69814284D01*
X100530225Y-69811961D01*
X100727762Y-69719849D01*
X100727767Y-69719846D01*
X100732749Y-69717523D01*
X100907244Y-69595340D01*
X100915789Y-69589357D01*
X100915792Y-69589355D01*
X100920300Y-69586198D01*
X101082198Y-69424300D01*
X101130966Y-69354653D01*
X101174934Y-69291859D01*
X101213523Y-69236749D01*
X101215846Y-69231767D01*
X101215849Y-69231762D01*
X101307961Y-69034225D01*
X101307961Y-69034224D01*
X101310284Y-69029243D01*
X101330103Y-68955280D01*
X101368119Y-68813402D01*
X101368119Y-68813400D01*
X101369543Y-68808087D01*
X101389498Y-68580000D01*
X101369543Y-68351913D01*
X101322220Y-68175301D01*
X101311707Y-68136067D01*
X101311706Y-68136065D01*
X101310284Y-68130757D01*
X101307961Y-68125775D01*
X101215849Y-67928238D01*
X101215846Y-67928233D01*
X101213523Y-67923251D01*
X101107523Y-67771868D01*
X101085357Y-67740211D01*
X101085355Y-67740208D01*
X101082198Y-67735700D01*
X100920300Y-67573802D01*
X100915792Y-67570645D01*
X100915789Y-67570643D01*
X100794496Y-67485713D01*
X100750168Y-67430256D01*
X100742859Y-67359637D01*
X100774890Y-67296276D01*
X100836091Y-67260291D01*
X100866767Y-67256500D01*
X101169800Y-67256500D01*
X101226609Y-67270033D01*
X101227260Y-67270362D01*
X101233159Y-67274222D01*
X101239766Y-67276679D01*
X101239768Y-67276680D01*
X101396558Y-67334990D01*
X101396560Y-67334990D01*
X101403168Y-67337448D01*
X101465133Y-67345716D01*
X101575980Y-67360507D01*
X101575984Y-67360507D01*
X101582961Y-67361438D01*
X101589972Y-67360800D01*
X101589976Y-67360800D01*
X101732459Y-67347832D01*
X101763600Y-67344998D01*
X101770302Y-67342820D01*
X101770304Y-67342820D01*
X101929409Y-67291124D01*
X101929412Y-67291123D01*
X101936108Y-67288947D01*
X102091912Y-67196069D01*
X102223266Y-67070982D01*
X102323643Y-66919902D01*
X102388055Y-66750338D01*
X102389035Y-66743366D01*
X102412748Y-66574639D01*
X102412748Y-66574636D01*
X102413299Y-66570717D01*
X102413616Y-66548000D01*
X102394833Y-66380545D01*
X102407117Y-66310619D01*
X102455256Y-66258435D01*
X102520048Y-66240500D01*
X102778340Y-66240500D01*
X102846461Y-66260502D01*
X102867435Y-66277405D01*
X105650550Y-69060520D01*
X105656404Y-69066785D01*
X105694439Y-69110385D01*
X105700653Y-69114752D01*
X105746719Y-69147128D01*
X105752014Y-69151061D01*
X105802282Y-69190476D01*
X105809198Y-69193599D01*
X105811484Y-69194983D01*
X105826165Y-69203357D01*
X105828525Y-69204622D01*
X105834739Y-69208990D01*
X105841818Y-69211750D01*
X105841820Y-69211751D01*
X105894275Y-69232202D01*
X105900344Y-69234753D01*
X105958573Y-69261045D01*
X105966040Y-69262429D01*
X105968595Y-69263230D01*
X105984848Y-69267859D01*
X105987428Y-69268522D01*
X105994509Y-69271282D01*
X106002040Y-69272273D01*
X106002042Y-69272274D01*
X106031661Y-69276173D01*
X106057861Y-69279622D01*
X106064359Y-69280652D01*
X106127186Y-69292296D01*
X106134766Y-69291859D01*
X106134767Y-69291859D01*
X106189392Y-69288709D01*
X106196646Y-69288500D01*
X109069122Y-69288500D01*
X109137243Y-69308502D01*
X109172335Y-69342229D01*
X109226643Y-69419789D01*
X109229802Y-69424300D01*
X109391700Y-69586198D01*
X109396208Y-69589355D01*
X109396211Y-69589357D01*
X109404756Y-69595340D01*
X109579251Y-69717523D01*
X109584233Y-69719846D01*
X109584238Y-69719849D01*
X109781775Y-69811961D01*
X109786757Y-69814284D01*
X109792065Y-69815706D01*
X109792067Y-69815707D01*
X110002598Y-69872119D01*
X110002600Y-69872119D01*
X110007913Y-69873543D01*
X110236000Y-69893498D01*
X110464087Y-69873543D01*
X110469400Y-69872119D01*
X110469402Y-69872119D01*
X110679933Y-69815707D01*
X110679935Y-69815706D01*
X110685243Y-69814284D01*
X110690225Y-69811961D01*
X110887762Y-69719849D01*
X110887767Y-69719846D01*
X110892749Y-69717523D01*
X111067244Y-69595340D01*
X111075789Y-69589357D01*
X111075792Y-69589355D01*
X111080300Y-69586198D01*
X111242198Y-69424300D01*
X111290966Y-69354653D01*
X111334934Y-69291859D01*
X111373523Y-69236749D01*
X111375846Y-69231767D01*
X111375849Y-69231762D01*
X111467961Y-69034225D01*
X111467961Y-69034224D01*
X111470284Y-69029243D01*
X111490103Y-68955280D01*
X111528119Y-68813402D01*
X111528119Y-68813400D01*
X111529543Y-68808087D01*
X111549498Y-68580000D01*
X111533791Y-68400469D01*
X115427095Y-68400469D01*
X115427392Y-68405622D01*
X115427392Y-68405625D01*
X115433067Y-68504041D01*
X115440427Y-68631697D01*
X115441564Y-68636743D01*
X115441565Y-68636749D01*
X115473741Y-68779523D01*
X115491346Y-68857642D01*
X115493288Y-68862424D01*
X115493289Y-68862428D01*
X115576270Y-69066785D01*
X115578484Y-69072237D01*
X115581183Y-69076641D01*
X115695525Y-69263230D01*
X115699501Y-69269719D01*
X115851147Y-69444784D01*
X116029349Y-69592730D01*
X116229322Y-69709584D01*
X116234147Y-69711426D01*
X116234148Y-69711427D01*
X116250112Y-69717523D01*
X116445694Y-69792209D01*
X116450760Y-69793240D01*
X116450761Y-69793240D01*
X116503846Y-69804040D01*
X116672656Y-69838385D01*
X116803324Y-69843176D01*
X116898949Y-69846683D01*
X116898953Y-69846683D01*
X116904113Y-69846872D01*
X116909233Y-69846216D01*
X116909235Y-69846216D01*
X116982270Y-69836860D01*
X117133847Y-69817442D01*
X117138795Y-69815957D01*
X117138802Y-69815956D01*
X117350747Y-69752369D01*
X117355690Y-69750886D01*
X117419045Y-69719849D01*
X117559049Y-69651262D01*
X117559052Y-69651260D01*
X117563684Y-69648991D01*
X117752243Y-69514494D01*
X117916303Y-69351005D01*
X118051458Y-69162917D01*
X118058327Y-69149020D01*
X118151784Y-68959922D01*
X118151785Y-68959920D01*
X118154078Y-68955280D01*
X118221408Y-68733671D01*
X118251640Y-68504041D01*
X118253327Y-68435000D01*
X118246059Y-68346598D01*
X118234773Y-68209318D01*
X118234772Y-68209312D01*
X118234349Y-68204167D01*
X118177925Y-67979533D01*
X118175866Y-67974797D01*
X118087630Y-67771868D01*
X118087628Y-67771865D01*
X118085570Y-67767131D01*
X117959764Y-67572665D01*
X117869486Y-67473450D01*
X117838434Y-67409605D01*
X117846829Y-67339106D01*
X117892005Y-67284338D01*
X117918449Y-67270669D01*
X117978054Y-67248324D01*
X117993649Y-67239786D01*
X118095724Y-67163285D01*
X118108285Y-67150724D01*
X118184786Y-67048649D01*
X118193324Y-67033054D01*
X118238478Y-66912606D01*
X118242105Y-66897351D01*
X118247631Y-66846486D01*
X118248000Y-66839672D01*
X118248000Y-66167115D01*
X118243525Y-66151876D01*
X118242135Y-66150671D01*
X118234452Y-66149000D01*
X115450116Y-66149000D01*
X115434877Y-66153475D01*
X115433672Y-66154865D01*
X115432001Y-66162548D01*
X115432001Y-66839669D01*
X115432371Y-66846490D01*
X115437895Y-66897352D01*
X115441521Y-66912604D01*
X115486676Y-67033054D01*
X115495214Y-67048649D01*
X115571715Y-67150724D01*
X115584276Y-67163285D01*
X115686351Y-67239786D01*
X115701946Y-67248324D01*
X115761540Y-67270665D01*
X115818304Y-67313307D01*
X115843004Y-67379868D01*
X115827796Y-67449217D01*
X115808404Y-67475698D01*
X115741639Y-67545564D01*
X115738725Y-67549836D01*
X115738724Y-67549837D01*
X115724531Y-67570643D01*
X115611119Y-67736899D01*
X115513602Y-67946981D01*
X115451707Y-68170169D01*
X115427095Y-68400469D01*
X111533791Y-68400469D01*
X111529543Y-68351913D01*
X111482220Y-68175301D01*
X111471707Y-68136067D01*
X111471706Y-68136065D01*
X111470284Y-68130757D01*
X111467961Y-68125775D01*
X111375849Y-67928238D01*
X111375846Y-67928233D01*
X111373523Y-67923251D01*
X111267523Y-67771868D01*
X111245357Y-67740211D01*
X111245355Y-67740208D01*
X111242198Y-67735700D01*
X111080300Y-67573802D01*
X111075792Y-67570645D01*
X111075789Y-67570643D01*
X110924932Y-67465012D01*
X110892749Y-67442477D01*
X110887767Y-67440154D01*
X110887762Y-67440151D01*
X110690225Y-67348039D01*
X110690224Y-67348039D01*
X110685243Y-67345716D01*
X110679935Y-67344294D01*
X110679933Y-67344293D01*
X110469402Y-67287881D01*
X110469400Y-67287881D01*
X110464087Y-67286457D01*
X110236000Y-67266502D01*
X110007913Y-67286457D01*
X110002600Y-67287881D01*
X110002598Y-67287881D01*
X109792067Y-67344293D01*
X109792065Y-67344294D01*
X109786757Y-67345716D01*
X109781776Y-67348039D01*
X109781775Y-67348039D01*
X109584238Y-67440151D01*
X109584233Y-67440154D01*
X109579251Y-67442477D01*
X109547068Y-67465012D01*
X109396211Y-67570643D01*
X109396208Y-67570645D01*
X109391700Y-67573802D01*
X109229802Y-67735700D01*
X109226645Y-67740208D01*
X109226643Y-67740211D01*
X109172335Y-67817771D01*
X109116878Y-67862099D01*
X109069122Y-67871500D01*
X106517660Y-67871500D01*
X106449539Y-67851498D01*
X106428565Y-67834595D01*
X104216855Y-65622885D01*
X115432000Y-65622885D01*
X115436475Y-65638124D01*
X115437865Y-65639329D01*
X115445548Y-65641000D01*
X116567885Y-65641000D01*
X116583124Y-65636525D01*
X116584329Y-65635135D01*
X116586000Y-65627452D01*
X116586000Y-65622885D01*
X117094000Y-65622885D01*
X117098475Y-65638124D01*
X117099865Y-65639329D01*
X117107548Y-65641000D01*
X118229884Y-65641000D01*
X118245123Y-65636525D01*
X118246328Y-65635135D01*
X118247999Y-65627452D01*
X118247999Y-64950331D01*
X118247629Y-64943510D01*
X118242105Y-64892648D01*
X118238479Y-64877396D01*
X118193324Y-64756946D01*
X118184786Y-64741351D01*
X118108285Y-64639276D01*
X118095724Y-64626715D01*
X117993649Y-64550214D01*
X117978054Y-64541676D01*
X117857606Y-64496522D01*
X117842351Y-64492895D01*
X117791486Y-64487369D01*
X117784672Y-64487000D01*
X117112115Y-64487000D01*
X117096876Y-64491475D01*
X117095671Y-64492865D01*
X117094000Y-64500548D01*
X117094000Y-65622885D01*
X116586000Y-65622885D01*
X116586000Y-64505116D01*
X116581525Y-64489877D01*
X116580135Y-64488672D01*
X116572452Y-64487001D01*
X115895331Y-64487001D01*
X115888510Y-64487371D01*
X115837648Y-64492895D01*
X115822396Y-64496521D01*
X115701946Y-64541676D01*
X115686351Y-64550214D01*
X115584276Y-64626715D01*
X115571715Y-64639276D01*
X115495214Y-64741351D01*
X115486676Y-64756946D01*
X115441522Y-64877394D01*
X115437895Y-64892649D01*
X115432369Y-64943514D01*
X115432000Y-64950328D01*
X115432000Y-65622885D01*
X104216855Y-65622885D01*
X103645450Y-65051480D01*
X103639596Y-65045215D01*
X103615655Y-65017771D01*
X103601561Y-65001615D01*
X103549280Y-64964871D01*
X103543986Y-64960939D01*
X103499693Y-64926209D01*
X103493718Y-64921524D01*
X103486802Y-64918401D01*
X103484516Y-64917017D01*
X103469835Y-64908643D01*
X103467475Y-64907378D01*
X103461261Y-64903010D01*
X103454182Y-64900250D01*
X103454180Y-64900249D01*
X103401725Y-64879798D01*
X103395656Y-64877247D01*
X103337427Y-64850955D01*
X103329960Y-64849571D01*
X103327405Y-64848770D01*
X103311152Y-64844141D01*
X103308572Y-64843478D01*
X103301491Y-64840718D01*
X103293960Y-64839727D01*
X103293958Y-64839726D01*
X103264339Y-64835827D01*
X103238139Y-64832378D01*
X103231641Y-64831348D01*
X103168814Y-64819704D01*
X103161234Y-64820141D01*
X103161233Y-64820141D01*
X103106608Y-64823291D01*
X103099354Y-64823500D01*
X100956629Y-64823500D01*
X100888508Y-64803498D01*
X100842015Y-64749842D01*
X100831911Y-64679568D01*
X100861405Y-64614988D01*
X100884359Y-64594287D01*
X100934386Y-64559258D01*
X100934392Y-64559253D01*
X100938902Y-64556095D01*
X101100800Y-64394197D01*
X101232125Y-64206646D01*
X101234448Y-64201664D01*
X101234451Y-64201659D01*
X101326563Y-64004122D01*
X101326563Y-64004121D01*
X101328886Y-63999140D01*
X101362187Y-63874862D01*
X101386721Y-63783299D01*
X101386721Y-63783297D01*
X101388145Y-63777984D01*
X101408100Y-63549897D01*
X101388145Y-63321810D01*
X101328886Y-63100654D01*
X101281318Y-62998643D01*
X101234451Y-62898135D01*
X101234448Y-62898130D01*
X101232125Y-62893148D01*
X101141178Y-62763262D01*
X101103959Y-62710108D01*
X101103957Y-62710105D01*
X101100800Y-62705597D01*
X100938902Y-62543699D01*
X100934394Y-62540542D01*
X100934391Y-62540540D01*
X100817665Y-62458808D01*
X100751351Y-62412374D01*
X100746369Y-62410051D01*
X100746364Y-62410048D01*
X100712145Y-62394092D01*
X100658860Y-62347175D01*
X100639399Y-62278898D01*
X100659941Y-62210938D01*
X100712145Y-62165702D01*
X100746364Y-62149746D01*
X100746369Y-62149743D01*
X100751351Y-62147420D01*
X100863108Y-62069167D01*
X100934391Y-62019254D01*
X100934394Y-62019252D01*
X100938902Y-62016095D01*
X101100800Y-61854197D01*
X101232125Y-61666646D01*
X101234448Y-61661664D01*
X101234451Y-61661659D01*
X101326563Y-61464122D01*
X101326563Y-61464121D01*
X101328886Y-61459140D01*
X101342025Y-61410107D01*
X101386721Y-61243299D01*
X101386721Y-61243297D01*
X101388145Y-61237984D01*
X101408100Y-61009897D01*
X101388145Y-60781810D01*
X101370463Y-60715819D01*
X101330309Y-60565964D01*
X101330308Y-60565962D01*
X101328886Y-60560654D01*
X101296811Y-60491868D01*
X101234451Y-60358135D01*
X101234448Y-60358130D01*
X101232125Y-60353148D01*
X101109837Y-60178503D01*
X101103959Y-60170108D01*
X101103957Y-60170105D01*
X101100800Y-60165597D01*
X100938902Y-60003699D01*
X100934394Y-60000542D01*
X100934391Y-60000540D01*
X100767820Y-59883906D01*
X100751351Y-59872374D01*
X100746369Y-59870051D01*
X100746364Y-59870048D01*
X100712145Y-59854092D01*
X100658860Y-59807175D01*
X100639399Y-59738898D01*
X100659941Y-59670938D01*
X100712145Y-59625702D01*
X100746364Y-59609746D01*
X100746369Y-59609743D01*
X100751351Y-59607420D01*
X100898126Y-59504647D01*
X100934391Y-59479254D01*
X100934394Y-59479252D01*
X100938902Y-59476095D01*
X101100800Y-59314197D01*
X101232125Y-59126646D01*
X101234448Y-59121664D01*
X101234451Y-59121659D01*
X101326563Y-58924122D01*
X101326563Y-58924121D01*
X101328886Y-58919140D01*
X101359906Y-58803375D01*
X101386721Y-58703299D01*
X101386721Y-58703297D01*
X101388145Y-58697984D01*
X101408100Y-58469897D01*
X101388145Y-58241810D01*
X101355480Y-58119904D01*
X101330309Y-58025964D01*
X101330308Y-58025962D01*
X101328886Y-58020654D01*
X101314310Y-57989396D01*
X101234451Y-57818135D01*
X101234448Y-57818130D01*
X101232125Y-57813148D01*
X101100800Y-57625597D01*
X100938902Y-57463699D01*
X100934394Y-57460542D01*
X100934391Y-57460540D01*
X100818475Y-57379375D01*
X100751351Y-57332374D01*
X100746369Y-57330051D01*
X100746364Y-57330048D01*
X100712145Y-57314092D01*
X100658860Y-57267175D01*
X100639399Y-57198898D01*
X100659941Y-57130938D01*
X100712145Y-57085702D01*
X100746364Y-57069746D01*
X100746369Y-57069743D01*
X100751351Y-57067420D01*
X100928704Y-56943236D01*
X100934391Y-56939254D01*
X100934394Y-56939252D01*
X100938902Y-56936095D01*
X101100800Y-56774197D01*
X101141162Y-56716555D01*
X101170287Y-56674960D01*
X101225744Y-56630632D01*
X101296364Y-56623323D01*
X101359724Y-56655354D01*
X101395709Y-56716555D01*
X101399500Y-56747231D01*
X101399500Y-57375088D01*
X101399208Y-57383658D01*
X101397187Y-57413310D01*
X101395275Y-57441352D01*
X101396580Y-57448829D01*
X101396580Y-57448830D01*
X101406261Y-57504299D01*
X101407223Y-57510821D01*
X101414898Y-57574242D01*
X101417581Y-57581343D01*
X101418222Y-57583952D01*
X101422685Y-57600262D01*
X101423450Y-57602798D01*
X101424757Y-57610284D01*
X101427811Y-57617241D01*
X101450442Y-57668795D01*
X101452933Y-57674899D01*
X101475513Y-57734656D01*
X101479817Y-57740919D01*
X101481054Y-57743285D01*
X101489299Y-57758097D01*
X101490632Y-57760351D01*
X101493685Y-57767305D01*
X101528863Y-57813148D01*
X101532579Y-57817991D01*
X101536459Y-57823332D01*
X101568339Y-57869720D01*
X101568344Y-57869725D01*
X101572643Y-57875981D01*
X101578313Y-57881032D01*
X101578314Y-57881034D01*
X101619170Y-57917435D01*
X101624446Y-57922416D01*
X105192454Y-61490425D01*
X105198308Y-61496690D01*
X105236336Y-61540282D01*
X105288626Y-61577033D01*
X105293868Y-61580925D01*
X105344179Y-61620373D01*
X105351098Y-61623497D01*
X105353390Y-61624885D01*
X105368062Y-61633254D01*
X105370422Y-61634519D01*
X105376636Y-61638887D01*
X105383715Y-61641647D01*
X105383717Y-61641648D01*
X105436172Y-61662099D01*
X105442241Y-61664650D01*
X105500470Y-61690942D01*
X105507943Y-61692327D01*
X105510509Y-61693131D01*
X105526732Y-61697752D01*
X105529324Y-61698417D01*
X105536406Y-61701179D01*
X105543941Y-61702171D01*
X105599758Y-61709519D01*
X105606274Y-61710551D01*
X105644667Y-61717667D01*
X105669083Y-61722192D01*
X105676663Y-61721755D01*
X105676664Y-61721755D01*
X105731277Y-61718606D01*
X105738530Y-61718397D01*
X106547724Y-61718397D01*
X106615845Y-61738399D01*
X106650937Y-61772126D01*
X106702434Y-61845671D01*
X106708404Y-61854197D01*
X106870302Y-62016095D01*
X106874813Y-62019254D01*
X106879026Y-62022789D01*
X106878075Y-62023923D01*
X106918073Y-62073968D01*
X106925378Y-62144587D01*
X106893344Y-62207946D01*
X106832140Y-62243927D01*
X106815085Y-62246979D01*
X106804286Y-62248152D01*
X106667897Y-62299282D01*
X106551341Y-62386636D01*
X106463987Y-62503192D01*
X106412857Y-62639581D01*
X106406102Y-62701763D01*
X106406102Y-64398031D01*
X106412857Y-64460213D01*
X106463987Y-64596602D01*
X106551341Y-64713158D01*
X106667897Y-64800512D01*
X106804286Y-64851642D01*
X106866468Y-64858397D01*
X108562736Y-64858397D01*
X108624918Y-64851642D01*
X108761307Y-64800512D01*
X108877863Y-64713158D01*
X108965217Y-64596602D01*
X109016347Y-64460213D01*
X109023102Y-64398031D01*
X109023102Y-62701763D01*
X109016347Y-62639581D01*
X108965217Y-62503192D01*
X108877863Y-62386636D01*
X108761307Y-62299282D01*
X108624918Y-62248152D01*
X108614128Y-62246980D01*
X108611996Y-62246094D01*
X108609380Y-62245472D01*
X108609481Y-62245049D01*
X108548567Y-62219742D01*
X108508139Y-62161380D01*
X108505680Y-62090426D01*
X108541973Y-62029407D01*
X108550633Y-62022408D01*
X108554395Y-62019251D01*
X108558902Y-62016095D01*
X108720800Y-61854197D01*
X108852125Y-61666646D01*
X108854448Y-61661664D01*
X108854451Y-61661659D01*
X108924019Y-61512469D01*
X115427095Y-61512469D01*
X115427392Y-61517622D01*
X115427392Y-61517625D01*
X115438033Y-61702171D01*
X115440427Y-61743697D01*
X115441564Y-61748743D01*
X115441565Y-61748749D01*
X115473741Y-61891523D01*
X115491346Y-61969642D01*
X115493288Y-61974424D01*
X115493289Y-61974428D01*
X115567646Y-62157546D01*
X115578484Y-62184237D01*
X115699501Y-62381719D01*
X115851147Y-62556784D01*
X115950877Y-62639581D01*
X116021684Y-62698366D01*
X116029349Y-62704730D01*
X116229322Y-62821584D01*
X116445694Y-62904209D01*
X116450760Y-62905240D01*
X116450761Y-62905240D01*
X116503846Y-62916040D01*
X116672656Y-62950385D01*
X116803324Y-62955176D01*
X116898949Y-62958683D01*
X116898953Y-62958683D01*
X116904113Y-62958872D01*
X116909233Y-62958216D01*
X116909235Y-62958216D01*
X116982270Y-62948860D01*
X117133847Y-62929442D01*
X117138795Y-62927957D01*
X117138802Y-62927956D01*
X117350747Y-62864369D01*
X117355690Y-62862886D01*
X117436236Y-62823427D01*
X117559049Y-62763262D01*
X117559052Y-62763260D01*
X117563684Y-62760991D01*
X117752243Y-62626494D01*
X117916303Y-62463005D01*
X118051458Y-62274917D01*
X118082248Y-62212619D01*
X118141929Y-62091862D01*
X118154078Y-62067280D01*
X118221408Y-61845671D01*
X118251640Y-61616041D01*
X118253327Y-61547000D01*
X118245667Y-61453830D01*
X118234773Y-61321318D01*
X118234772Y-61321312D01*
X118234349Y-61316167D01*
X118177925Y-61091533D01*
X118175866Y-61086797D01*
X118087630Y-60883868D01*
X118087628Y-60883865D01*
X118085570Y-60879131D01*
X117959764Y-60684665D01*
X117869486Y-60585450D01*
X117838434Y-60521605D01*
X117846829Y-60451106D01*
X117892005Y-60396338D01*
X117918449Y-60382669D01*
X117978054Y-60360324D01*
X117993649Y-60351786D01*
X118095724Y-60275285D01*
X118108285Y-60262724D01*
X118184786Y-60160649D01*
X118193324Y-60145054D01*
X118238478Y-60024606D01*
X118242105Y-60009351D01*
X118247631Y-59958486D01*
X118248000Y-59951672D01*
X118248000Y-59279115D01*
X118243525Y-59263876D01*
X118242135Y-59262671D01*
X118234452Y-59261000D01*
X115450116Y-59261000D01*
X115434877Y-59265475D01*
X115433672Y-59266865D01*
X115432001Y-59274548D01*
X115432001Y-59951669D01*
X115432371Y-59958490D01*
X115437895Y-60009352D01*
X115441521Y-60024604D01*
X115486676Y-60145054D01*
X115495214Y-60160649D01*
X115571715Y-60262724D01*
X115584276Y-60275285D01*
X115686351Y-60351786D01*
X115701946Y-60360324D01*
X115761540Y-60382665D01*
X115818304Y-60425307D01*
X115843004Y-60491868D01*
X115827796Y-60561217D01*
X115808404Y-60587698D01*
X115741639Y-60657564D01*
X115738725Y-60661836D01*
X115738724Y-60661837D01*
X115682542Y-60744197D01*
X115611119Y-60848899D01*
X115513602Y-61058981D01*
X115451707Y-61282169D01*
X115427095Y-61512469D01*
X108924019Y-61512469D01*
X108946563Y-61464122D01*
X108946563Y-61464121D01*
X108948886Y-61459140D01*
X108962025Y-61410107D01*
X109006721Y-61243299D01*
X109006721Y-61243297D01*
X109008145Y-61237984D01*
X109028100Y-61009897D01*
X109008145Y-60781810D01*
X108990463Y-60715819D01*
X108950309Y-60565964D01*
X108950308Y-60565962D01*
X108948886Y-60560654D01*
X108916811Y-60491868D01*
X108854451Y-60358135D01*
X108854448Y-60358130D01*
X108852125Y-60353148D01*
X108729837Y-60178503D01*
X108723959Y-60170108D01*
X108723957Y-60170105D01*
X108720800Y-60165597D01*
X108558902Y-60003699D01*
X108554394Y-60000542D01*
X108554391Y-60000540D01*
X108387820Y-59883906D01*
X108371351Y-59872374D01*
X108366369Y-59870051D01*
X108366364Y-59870048D01*
X108332145Y-59854092D01*
X108278860Y-59807175D01*
X108259399Y-59738898D01*
X108279941Y-59670938D01*
X108332145Y-59625702D01*
X108366364Y-59609746D01*
X108366369Y-59609743D01*
X108371351Y-59607420D01*
X108518126Y-59504647D01*
X108554391Y-59479254D01*
X108554394Y-59479252D01*
X108558902Y-59476095D01*
X108720800Y-59314197D01*
X108852125Y-59126646D01*
X108854448Y-59121664D01*
X108854451Y-59121659D01*
X108946563Y-58924122D01*
X108946563Y-58924121D01*
X108948886Y-58919140D01*
X108979906Y-58803375D01*
X108998258Y-58734885D01*
X115432000Y-58734885D01*
X115436475Y-58750124D01*
X115437865Y-58751329D01*
X115445548Y-58753000D01*
X116567885Y-58753000D01*
X116583124Y-58748525D01*
X116584329Y-58747135D01*
X116586000Y-58739452D01*
X116586000Y-58734885D01*
X117094000Y-58734885D01*
X117098475Y-58750124D01*
X117099865Y-58751329D01*
X117107548Y-58753000D01*
X118229884Y-58753000D01*
X118245123Y-58748525D01*
X118246328Y-58747135D01*
X118247999Y-58739452D01*
X118247999Y-58062331D01*
X118247629Y-58055510D01*
X118242105Y-58004648D01*
X118238479Y-57989396D01*
X118193324Y-57868946D01*
X118184786Y-57853351D01*
X118108285Y-57751276D01*
X118095724Y-57738715D01*
X117993649Y-57662214D01*
X117978054Y-57653676D01*
X117857606Y-57608522D01*
X117842351Y-57604895D01*
X117791486Y-57599369D01*
X117784672Y-57599000D01*
X117112115Y-57599000D01*
X117096876Y-57603475D01*
X117095671Y-57604865D01*
X117094000Y-57612548D01*
X117094000Y-58734885D01*
X116586000Y-58734885D01*
X116586000Y-57617116D01*
X116581525Y-57601877D01*
X116580135Y-57600672D01*
X116572452Y-57599001D01*
X115895331Y-57599001D01*
X115888510Y-57599371D01*
X115837648Y-57604895D01*
X115822396Y-57608521D01*
X115701946Y-57653676D01*
X115686351Y-57662214D01*
X115584276Y-57738715D01*
X115571715Y-57751276D01*
X115495214Y-57853351D01*
X115486676Y-57868946D01*
X115441522Y-57989394D01*
X115437895Y-58004649D01*
X115432369Y-58055514D01*
X115432000Y-58062328D01*
X115432000Y-58734885D01*
X108998258Y-58734885D01*
X109006721Y-58703299D01*
X109006721Y-58703297D01*
X109008145Y-58697984D01*
X109028100Y-58469897D01*
X109008145Y-58241810D01*
X108975480Y-58119904D01*
X108950309Y-58025964D01*
X108950308Y-58025962D01*
X108948886Y-58020654D01*
X108934310Y-57989396D01*
X108854451Y-57818135D01*
X108854448Y-57818130D01*
X108852125Y-57813148D01*
X108720800Y-57625597D01*
X108558902Y-57463699D01*
X108554394Y-57460542D01*
X108554391Y-57460540D01*
X108438475Y-57379375D01*
X108371351Y-57332374D01*
X108366369Y-57330051D01*
X108366364Y-57330048D01*
X108331553Y-57313816D01*
X108278268Y-57266899D01*
X108258807Y-57198622D01*
X108279349Y-57130662D01*
X108331553Y-57085426D01*
X108366113Y-57069311D01*
X108375609Y-57063828D01*
X108554069Y-56938869D01*
X108562477Y-56931813D01*
X108716518Y-56777772D01*
X108723574Y-56769364D01*
X108848533Y-56590904D01*
X108854016Y-56581408D01*
X108946092Y-56383950D01*
X108949838Y-56373658D01*
X108965644Y-56314670D01*
X112722160Y-56314670D01*
X112727887Y-56322320D01*
X112899042Y-56427205D01*
X112907837Y-56431687D01*
X113117988Y-56518734D01*
X113127373Y-56521783D01*
X113348554Y-56574885D01*
X113358301Y-56576428D01*
X113585070Y-56594275D01*
X113594930Y-56594275D01*
X113821699Y-56576428D01*
X113831446Y-56574885D01*
X114052627Y-56521783D01*
X114062012Y-56518734D01*
X114272163Y-56431687D01*
X114280958Y-56427205D01*
X114448445Y-56324568D01*
X114457400Y-56314670D01*
X119222160Y-56314670D01*
X119227887Y-56322320D01*
X119399042Y-56427205D01*
X119407837Y-56431687D01*
X119617988Y-56518734D01*
X119627373Y-56521783D01*
X119848554Y-56574885D01*
X119858301Y-56576428D01*
X120085070Y-56594275D01*
X120094930Y-56594275D01*
X120321699Y-56576428D01*
X120331446Y-56574885D01*
X120552627Y-56521783D01*
X120562012Y-56518734D01*
X120772163Y-56431687D01*
X120780958Y-56427205D01*
X120948445Y-56324568D01*
X120957907Y-56314110D01*
X120954124Y-56305334D01*
X120102812Y-55454022D01*
X120088868Y-55446408D01*
X120087035Y-55446539D01*
X120080420Y-55450790D01*
X119228920Y-56302290D01*
X119222160Y-56314670D01*
X114457400Y-56314670D01*
X114457907Y-56314110D01*
X114454124Y-56305334D01*
X113602812Y-55454022D01*
X113588868Y-55446408D01*
X113587035Y-55446539D01*
X113580420Y-55450790D01*
X112728920Y-56302290D01*
X112722160Y-56314670D01*
X108965644Y-56314670D01*
X108995996Y-56201394D01*
X108995660Y-56187298D01*
X108987718Y-56183897D01*
X106446635Y-56183897D01*
X106433104Y-56187870D01*
X106431875Y-56196419D01*
X106479366Y-56373658D01*
X106483112Y-56383950D01*
X106575188Y-56581408D01*
X106580671Y-56590904D01*
X106705630Y-56769364D01*
X106712686Y-56777772D01*
X106866727Y-56931813D01*
X106875135Y-56938869D01*
X107053595Y-57063828D01*
X107063091Y-57069311D01*
X107097651Y-57085426D01*
X107150936Y-57132343D01*
X107170397Y-57200620D01*
X107149855Y-57268580D01*
X107097651Y-57313816D01*
X107062840Y-57330048D01*
X107062835Y-57330051D01*
X107057853Y-57332374D01*
X106990729Y-57379375D01*
X106874813Y-57460540D01*
X106874810Y-57460542D01*
X106870302Y-57463699D01*
X106708404Y-57625597D01*
X106577079Y-57813148D01*
X106574756Y-57818130D01*
X106574753Y-57818135D01*
X106494894Y-57989396D01*
X106480318Y-58020654D01*
X106478896Y-58025962D01*
X106478895Y-58025964D01*
X106453724Y-58119904D01*
X106421059Y-58241810D01*
X106401104Y-58469897D01*
X106421059Y-58697984D01*
X106422483Y-58703297D01*
X106422483Y-58703299D01*
X106449299Y-58803375D01*
X106480318Y-58919140D01*
X106482641Y-58924121D01*
X106482641Y-58924122D01*
X106574753Y-59121659D01*
X106574756Y-59121664D01*
X106577079Y-59126646D01*
X106708404Y-59314197D01*
X106870302Y-59476095D01*
X106874810Y-59479252D01*
X106874813Y-59479254D01*
X106911078Y-59504647D01*
X107057853Y-59607420D01*
X107062835Y-59609743D01*
X107062840Y-59609746D01*
X107097059Y-59625702D01*
X107150344Y-59672619D01*
X107169805Y-59740896D01*
X107149263Y-59808856D01*
X107097059Y-59854092D01*
X107062840Y-59870048D01*
X107062835Y-59870051D01*
X107057853Y-59872374D01*
X107041384Y-59883906D01*
X106874813Y-60000540D01*
X106874810Y-60000542D01*
X106870302Y-60003699D01*
X106708404Y-60165597D01*
X106705247Y-60170105D01*
X106705245Y-60170108D01*
X106650937Y-60247668D01*
X106595480Y-60291996D01*
X106547724Y-60301397D01*
X106059557Y-60301397D01*
X105991436Y-60281395D01*
X105970462Y-60264492D01*
X102853405Y-57147435D01*
X102819379Y-57085123D01*
X102816500Y-57058340D01*
X102816500Y-56310132D01*
X102829983Y-56254400D01*
X102831643Y-56251902D01*
X102850830Y-56201394D01*
X102893555Y-56088920D01*
X102893556Y-56088918D01*
X102896055Y-56082338D01*
X102897664Y-56070890D01*
X102920748Y-55906639D01*
X102920748Y-55906636D01*
X102921299Y-55902717D01*
X102921616Y-55880000D01*
X102901397Y-55699745D01*
X102899080Y-55693091D01*
X102886999Y-55658400D01*
X106433208Y-55658400D01*
X106433544Y-55672496D01*
X106441486Y-55675897D01*
X107442487Y-55675897D01*
X107457726Y-55671422D01*
X107458931Y-55670032D01*
X107460602Y-55662349D01*
X107460602Y-55657782D01*
X107968602Y-55657782D01*
X107973077Y-55673021D01*
X107974467Y-55674226D01*
X107982150Y-55675897D01*
X108982569Y-55675897D01*
X108996100Y-55671924D01*
X108997329Y-55663375D01*
X108949838Y-55486136D01*
X108946092Y-55475844D01*
X108854016Y-55278386D01*
X108848533Y-55268890D01*
X108723574Y-55090430D01*
X108720637Y-55086930D01*
X112077725Y-55086930D01*
X112095572Y-55313699D01*
X112097115Y-55323446D01*
X112150217Y-55544627D01*
X112153266Y-55554012D01*
X112240313Y-55764163D01*
X112244795Y-55772958D01*
X112347432Y-55940445D01*
X112357890Y-55949907D01*
X112366666Y-55946124D01*
X113217978Y-55094812D01*
X113224356Y-55083132D01*
X113954408Y-55083132D01*
X113954539Y-55084965D01*
X113958790Y-55091580D01*
X114810290Y-55943080D01*
X114822670Y-55949840D01*
X114830320Y-55944113D01*
X114935205Y-55772958D01*
X114939687Y-55764163D01*
X115026734Y-55554012D01*
X115029783Y-55544627D01*
X115082885Y-55323446D01*
X115084428Y-55313699D01*
X115102275Y-55086930D01*
X118577725Y-55086930D01*
X118595572Y-55313699D01*
X118597115Y-55323446D01*
X118650217Y-55544627D01*
X118653266Y-55554012D01*
X118740313Y-55764163D01*
X118744795Y-55772958D01*
X118847432Y-55940445D01*
X118857890Y-55949907D01*
X118866666Y-55946124D01*
X119717978Y-55094812D01*
X119724356Y-55083132D01*
X120454408Y-55083132D01*
X120454539Y-55084965D01*
X120458790Y-55091580D01*
X121310290Y-55943080D01*
X121322670Y-55949840D01*
X121330320Y-55944113D01*
X121435205Y-55772958D01*
X121439687Y-55764163D01*
X121526734Y-55554012D01*
X121529783Y-55544627D01*
X121582885Y-55323446D01*
X121584428Y-55313699D01*
X121602275Y-55086930D01*
X121602275Y-55077070D01*
X121584428Y-54850301D01*
X121582885Y-54840554D01*
X121529783Y-54619373D01*
X121526734Y-54609988D01*
X121439687Y-54399837D01*
X121435205Y-54391042D01*
X121332568Y-54223555D01*
X121322110Y-54214093D01*
X121313334Y-54217876D01*
X120462022Y-55069188D01*
X120454408Y-55083132D01*
X119724356Y-55083132D01*
X119725592Y-55080868D01*
X119725461Y-55079035D01*
X119721210Y-55072420D01*
X118869710Y-54220920D01*
X118857330Y-54214160D01*
X118849680Y-54219887D01*
X118744795Y-54391042D01*
X118740313Y-54399837D01*
X118653266Y-54609988D01*
X118650217Y-54619373D01*
X118597115Y-54840554D01*
X118595572Y-54850301D01*
X118577725Y-55077070D01*
X118577725Y-55086930D01*
X115102275Y-55086930D01*
X115102275Y-55077070D01*
X115084428Y-54850301D01*
X115082885Y-54840554D01*
X115029783Y-54619373D01*
X115026734Y-54609988D01*
X114939687Y-54399837D01*
X114935205Y-54391042D01*
X114832568Y-54223555D01*
X114822110Y-54214093D01*
X114813334Y-54217876D01*
X113962022Y-55069188D01*
X113954408Y-55083132D01*
X113224356Y-55083132D01*
X113225592Y-55080868D01*
X113225461Y-55079035D01*
X113221210Y-55072420D01*
X112369710Y-54220920D01*
X112357330Y-54214160D01*
X112349680Y-54219887D01*
X112244795Y-54391042D01*
X112240313Y-54399837D01*
X112153266Y-54609988D01*
X112150217Y-54619373D01*
X112097115Y-54840554D01*
X112095572Y-54850301D01*
X112077725Y-55077070D01*
X112077725Y-55086930D01*
X108720637Y-55086930D01*
X108716518Y-55082022D01*
X108562477Y-54927981D01*
X108554069Y-54920925D01*
X108375609Y-54795966D01*
X108366113Y-54790483D01*
X108168655Y-54698407D01*
X108158363Y-54694661D01*
X107986099Y-54648503D01*
X107972003Y-54648839D01*
X107968602Y-54656781D01*
X107968602Y-55657782D01*
X107460602Y-55657782D01*
X107460602Y-54661930D01*
X107456629Y-54648399D01*
X107448080Y-54647170D01*
X107270841Y-54694661D01*
X107260549Y-54698407D01*
X107063091Y-54790483D01*
X107053595Y-54795966D01*
X106875135Y-54920925D01*
X106866727Y-54927981D01*
X106712686Y-55082022D01*
X106705630Y-55090430D01*
X106580671Y-55268890D01*
X106575188Y-55278386D01*
X106483112Y-55475844D01*
X106479366Y-55486136D01*
X106433208Y-55658400D01*
X102886999Y-55658400D01*
X102844064Y-55535106D01*
X102844062Y-55535103D01*
X102841745Y-55528448D01*
X102745626Y-55374624D01*
X102739666Y-55368622D01*
X102622778Y-55250915D01*
X102622774Y-55250912D01*
X102617815Y-55245918D01*
X102606697Y-55238862D01*
X102558538Y-55208300D01*
X102464666Y-55148727D01*
X102435463Y-55138328D01*
X102300425Y-55090243D01*
X102300420Y-55090242D01*
X102293790Y-55087881D01*
X102286802Y-55087048D01*
X102286799Y-55087047D01*
X102163698Y-55072368D01*
X102113680Y-55066404D01*
X102106677Y-55067140D01*
X102106676Y-55067140D01*
X101940288Y-55084628D01*
X101940286Y-55084629D01*
X101933288Y-55085364D01*
X101761579Y-55143818D01*
X101755575Y-55147512D01*
X101613095Y-55235166D01*
X101613092Y-55235168D01*
X101607088Y-55238862D01*
X101602053Y-55243793D01*
X101602050Y-55243795D01*
X101501524Y-55342238D01*
X101477493Y-55365771D01*
X101475240Y-55369267D01*
X101417627Y-55408771D01*
X101346662Y-55410889D01*
X101285817Y-55374305D01*
X101264342Y-55342238D01*
X101234451Y-55278135D01*
X101234448Y-55278130D01*
X101232125Y-55273148D01*
X101145004Y-55148727D01*
X101103959Y-55090108D01*
X101103957Y-55090105D01*
X101100800Y-55085597D01*
X100938902Y-54923699D01*
X100934394Y-54920542D01*
X100934391Y-54920540D01*
X100856831Y-54866232D01*
X100812503Y-54810775D01*
X100803102Y-54763019D01*
X100803102Y-53849890D01*
X112722093Y-53849890D01*
X112725876Y-53858666D01*
X113577188Y-54709978D01*
X113591132Y-54717592D01*
X113592965Y-54717461D01*
X113599580Y-54713210D01*
X114451080Y-53861710D01*
X114457534Y-53849890D01*
X119222093Y-53849890D01*
X119225876Y-53858666D01*
X120077188Y-54709978D01*
X120091132Y-54717592D01*
X120092965Y-54717461D01*
X120099580Y-54713210D01*
X120951080Y-53861710D01*
X120957840Y-53849330D01*
X120952113Y-53841680D01*
X120780958Y-53736795D01*
X120772163Y-53732313D01*
X120562012Y-53645266D01*
X120552627Y-53642217D01*
X120331446Y-53589115D01*
X120321699Y-53587572D01*
X120094930Y-53569725D01*
X120085070Y-53569725D01*
X119858301Y-53587572D01*
X119848554Y-53589115D01*
X119627373Y-53642217D01*
X119617988Y-53645266D01*
X119407837Y-53732313D01*
X119399042Y-53736795D01*
X119231555Y-53839432D01*
X119222093Y-53849890D01*
X114457534Y-53849890D01*
X114457840Y-53849330D01*
X114452113Y-53841680D01*
X114280958Y-53736795D01*
X114272163Y-53732313D01*
X114062012Y-53645266D01*
X114052627Y-53642217D01*
X113831446Y-53589115D01*
X113821699Y-53587572D01*
X113594930Y-53569725D01*
X113585070Y-53569725D01*
X113358301Y-53587572D01*
X113348554Y-53589115D01*
X113127373Y-53642217D01*
X113117988Y-53645266D01*
X112907837Y-53732313D01*
X112899042Y-53736795D01*
X112731555Y-53839432D01*
X112722093Y-53849890D01*
X100803102Y-53849890D01*
X100803102Y-53685102D01*
X100823104Y-53616981D01*
X100876760Y-53570488D01*
X100929102Y-53559102D01*
X111880853Y-53559102D01*
X111924773Y-53567005D01*
X112064558Y-53618991D01*
X112064568Y-53618994D01*
X112071168Y-53621448D01*
X112078149Y-53622379D01*
X112078151Y-53622380D01*
X112243980Y-53644507D01*
X112243984Y-53644507D01*
X112250961Y-53645438D01*
X112257972Y-53644800D01*
X112257976Y-53644800D01*
X112400459Y-53631832D01*
X112431600Y-53628998D01*
X112438302Y-53626820D01*
X112438304Y-53626820D01*
X112597409Y-53575124D01*
X112597412Y-53575123D01*
X112604108Y-53572947D01*
X112734223Y-53495383D01*
X112753860Y-53483677D01*
X112753862Y-53483676D01*
X112759912Y-53480069D01*
X112891266Y-53354982D01*
X112991643Y-53203902D01*
X113056055Y-53034338D01*
X113081299Y-52854717D01*
X113081616Y-52832000D01*
X113061397Y-52651745D01*
X113049459Y-52617464D01*
X113004064Y-52487106D01*
X113004062Y-52487103D01*
X113001745Y-52480448D01*
X112905626Y-52326624D01*
X112900664Y-52321627D01*
X112782778Y-52202915D01*
X112782774Y-52202912D01*
X112777815Y-52197918D01*
X112624666Y-52100727D01*
X112595463Y-52090328D01*
X112460425Y-52042243D01*
X112460420Y-52042242D01*
X112453790Y-52039881D01*
X112446802Y-52039048D01*
X112446799Y-52039047D01*
X112306017Y-52022260D01*
X112273680Y-52018404D01*
X112266677Y-52019140D01*
X112266676Y-52019140D01*
X112100288Y-52036628D01*
X112100286Y-52036629D01*
X112093288Y-52037364D01*
X112027297Y-52059829D01*
X111928249Y-52093547D01*
X111928246Y-52093548D01*
X111921579Y-52095818D01*
X111915580Y-52099508D01*
X111915577Y-52099510D01*
X111876715Y-52123419D01*
X111810692Y-52142102D01*
X100440264Y-52142102D01*
X100372143Y-52122100D01*
X100351169Y-52105198D01*
X100089435Y-51843465D01*
X100083581Y-51837198D01*
X100050556Y-51799340D01*
X100050553Y-51799337D01*
X100045561Y-51793615D01*
X99993280Y-51756871D01*
X99988004Y-51752953D01*
X99963389Y-51733653D01*
X99922126Y-51675880D01*
X99918646Y-51604969D01*
X99954057Y-51543434D01*
X100017115Y-51510811D01*
X100041137Y-51508500D01*
X105556161Y-51508500D01*
X105612970Y-51522033D01*
X105613621Y-51522362D01*
X105619520Y-51526222D01*
X105626128Y-51528680D01*
X105626129Y-51528680D01*
X105782919Y-51586990D01*
X105782921Y-51586990D01*
X105789529Y-51589448D01*
X105873356Y-51600633D01*
X105962341Y-51612507D01*
X105962345Y-51612507D01*
X105969322Y-51613438D01*
X105976333Y-51612800D01*
X105976337Y-51612800D01*
X106118820Y-51599832D01*
X106149961Y-51596998D01*
X106156663Y-51594820D01*
X106156665Y-51594820D01*
X106315770Y-51543124D01*
X106315773Y-51543123D01*
X106322469Y-51540947D01*
X106478273Y-51448069D01*
X106609627Y-51322982D01*
X106710004Y-51171902D01*
X106774416Y-51002338D01*
X106775396Y-50995366D01*
X106799109Y-50826639D01*
X106799109Y-50826636D01*
X106799660Y-50822717D01*
X106799977Y-50800000D01*
X106785019Y-50666649D01*
X106781194Y-50632545D01*
X106793478Y-50562619D01*
X106841617Y-50510435D01*
X106906409Y-50492500D01*
X108789800Y-50492500D01*
X108846609Y-50506033D01*
X108847260Y-50506362D01*
X108853159Y-50510222D01*
X108859767Y-50512680D01*
X108859768Y-50512680D01*
X109016558Y-50570990D01*
X109016560Y-50570990D01*
X109023168Y-50573448D01*
X109106995Y-50584633D01*
X109195980Y-50596507D01*
X109195984Y-50596507D01*
X109202961Y-50597438D01*
X109209972Y-50596800D01*
X109209976Y-50596800D01*
X109372590Y-50582000D01*
X109383600Y-50580998D01*
X109390302Y-50578820D01*
X109390304Y-50578820D01*
X109549409Y-50527124D01*
X109549412Y-50527123D01*
X109556108Y-50524947D01*
X109670308Y-50456870D01*
X109705860Y-50435677D01*
X109705862Y-50435676D01*
X109711912Y-50432069D01*
X109843266Y-50306982D01*
X109926431Y-50181808D01*
X109980786Y-50136140D01*
X110051205Y-50127107D01*
X110120472Y-50162442D01*
X111020550Y-51062520D01*
X111026404Y-51068785D01*
X111064439Y-51112385D01*
X111070657Y-51116755D01*
X111116697Y-51149112D01*
X111121993Y-51153045D01*
X111172282Y-51192477D01*
X111179204Y-51195602D01*
X111181452Y-51196964D01*
X111196185Y-51205368D01*
X111198524Y-51206622D01*
X111204739Y-51210990D01*
X111211815Y-51213749D01*
X111211819Y-51213751D01*
X111264269Y-51234200D01*
X111270334Y-51236749D01*
X111328573Y-51263045D01*
X111336038Y-51264429D01*
X111338582Y-51265226D01*
X111354848Y-51269859D01*
X111357428Y-51270521D01*
X111364509Y-51273282D01*
X111372042Y-51274274D01*
X111372043Y-51274274D01*
X111404699Y-51278573D01*
X111427857Y-51281622D01*
X111434355Y-51282650D01*
X111497187Y-51294296D01*
X111504767Y-51293859D01*
X111504768Y-51293859D01*
X111559398Y-51290709D01*
X111566651Y-51290500D01*
X112184394Y-51290500D01*
X112252515Y-51310502D01*
X112291826Y-51350665D01*
X112363235Y-51467193D01*
X112363242Y-51467202D01*
X112365824Y-51471416D01*
X112520031Y-51651969D01*
X112700584Y-51806176D01*
X112704792Y-51808755D01*
X112704798Y-51808759D01*
X112866095Y-51907602D01*
X112903037Y-51930240D01*
X112907607Y-51932133D01*
X112907611Y-51932135D01*
X113115885Y-52018404D01*
X113122406Y-52021105D01*
X113187064Y-52036628D01*
X113348476Y-52075380D01*
X113348482Y-52075381D01*
X113353289Y-52076535D01*
X113590000Y-52095165D01*
X113826711Y-52076535D01*
X113831518Y-52075381D01*
X113831524Y-52075380D01*
X113992936Y-52036628D01*
X114057594Y-52021105D01*
X114064115Y-52018404D01*
X114272389Y-51932135D01*
X114272393Y-51932133D01*
X114276963Y-51930240D01*
X114313905Y-51907602D01*
X114475202Y-51808759D01*
X114475208Y-51808755D01*
X114479416Y-51806176D01*
X114659969Y-51651969D01*
X114814176Y-51471416D01*
X114816755Y-51467208D01*
X114816759Y-51467202D01*
X114935654Y-51273183D01*
X114938240Y-51268963D01*
X114940692Y-51263045D01*
X115027211Y-51054167D01*
X115027212Y-51054165D01*
X115029105Y-51049594D01*
X115084535Y-50818711D01*
X115103165Y-50582000D01*
X118576835Y-50582000D01*
X118595465Y-50818711D01*
X118650895Y-51049594D01*
X118652788Y-51054165D01*
X118652789Y-51054167D01*
X118739309Y-51263045D01*
X118741760Y-51268963D01*
X118744346Y-51273183D01*
X118863241Y-51467202D01*
X118863245Y-51467208D01*
X118865824Y-51471416D01*
X119020031Y-51651969D01*
X119200584Y-51806176D01*
X119204792Y-51808755D01*
X119204798Y-51808759D01*
X119366095Y-51907602D01*
X119403037Y-51930240D01*
X119407607Y-51932133D01*
X119407611Y-51932135D01*
X119615885Y-52018404D01*
X119622406Y-52021105D01*
X119687064Y-52036628D01*
X119848476Y-52075380D01*
X119848482Y-52075381D01*
X119853289Y-52076535D01*
X120090000Y-52095165D01*
X120326711Y-52076535D01*
X120331518Y-52075381D01*
X120331524Y-52075380D01*
X120492936Y-52036628D01*
X120557594Y-52021105D01*
X120564115Y-52018404D01*
X120772389Y-51932135D01*
X120772393Y-51932133D01*
X120776963Y-51930240D01*
X120813905Y-51907602D01*
X120975202Y-51808759D01*
X120975208Y-51808755D01*
X120979416Y-51806176D01*
X121159969Y-51651969D01*
X121314176Y-51471416D01*
X121316755Y-51467208D01*
X121316759Y-51467202D01*
X121347710Y-51416695D01*
X124997251Y-51416695D01*
X124997548Y-51421848D01*
X124997548Y-51421851D01*
X125007070Y-51586990D01*
X125010110Y-51639715D01*
X125011247Y-51644761D01*
X125011248Y-51644767D01*
X125018260Y-51675880D01*
X125059222Y-51857639D01*
X125103905Y-51967680D01*
X125133122Y-52039633D01*
X125143266Y-52064616D01*
X125162387Y-52095818D01*
X125224898Y-52197827D01*
X125259987Y-52255088D01*
X125406250Y-52423938D01*
X125578126Y-52566632D01*
X125771000Y-52679338D01*
X125979692Y-52759030D01*
X125984760Y-52760061D01*
X125984763Y-52760062D01*
X126079862Y-52779410D01*
X126198597Y-52803567D01*
X126203772Y-52803757D01*
X126203774Y-52803757D01*
X126416673Y-52811564D01*
X126416677Y-52811564D01*
X126421837Y-52811753D01*
X126426957Y-52811097D01*
X126426959Y-52811097D01*
X126638288Y-52784025D01*
X126638289Y-52784025D01*
X126643416Y-52783368D01*
X126648366Y-52781883D01*
X126852429Y-52720661D01*
X126852434Y-52720659D01*
X126857384Y-52719174D01*
X127057994Y-52620896D01*
X127239860Y-52491173D01*
X127256623Y-52474469D01*
X127387175Y-52344372D01*
X127398096Y-52333489D01*
X127457594Y-52250689D01*
X127528453Y-52152077D01*
X127529640Y-52152930D01*
X127576960Y-52109362D01*
X127646897Y-52097145D01*
X127712338Y-52124678D01*
X127740166Y-52156511D01*
X127797694Y-52250388D01*
X127803777Y-52258699D01*
X127943213Y-52419667D01*
X127950580Y-52426883D01*
X128114434Y-52562916D01*
X128122881Y-52568831D01*
X128306756Y-52676279D01*
X128316042Y-52680729D01*
X128515001Y-52756703D01*
X128524899Y-52759579D01*
X128628250Y-52780606D01*
X128642299Y-52779410D01*
X128646000Y-52769065D01*
X128646000Y-52768517D01*
X129154000Y-52768517D01*
X129158064Y-52782359D01*
X129171478Y-52784393D01*
X129178184Y-52783534D01*
X129188262Y-52781392D01*
X129392255Y-52720191D01*
X129401842Y-52716433D01*
X129593095Y-52622739D01*
X129601945Y-52617464D01*
X129775328Y-52493792D01*
X129783200Y-52487139D01*
X129934052Y-52336812D01*
X129940730Y-52328965D01*
X130065003Y-52156020D01*
X130070313Y-52147183D01*
X130164670Y-51956267D01*
X130168469Y-51946672D01*
X130230377Y-51742910D01*
X130232555Y-51732837D01*
X130233986Y-51721962D01*
X130231775Y-51707778D01*
X130218617Y-51704000D01*
X129172115Y-51704000D01*
X129156876Y-51708475D01*
X129155671Y-51709865D01*
X129154000Y-51717548D01*
X129154000Y-52768517D01*
X128646000Y-52768517D01*
X128646000Y-51322000D01*
X128666002Y-51253879D01*
X128719658Y-51207386D01*
X128772000Y-51196000D01*
X130218344Y-51196000D01*
X130231875Y-51192027D01*
X130233180Y-51182947D01*
X130191214Y-51015875D01*
X130187894Y-51006124D01*
X130102972Y-50810814D01*
X130098105Y-50801739D01*
X129982426Y-50622926D01*
X129976136Y-50614757D01*
X129832806Y-50457240D01*
X129825273Y-50450215D01*
X129658139Y-50318222D01*
X129649556Y-50312520D01*
X129612602Y-50292120D01*
X129562631Y-50241687D01*
X129547859Y-50172245D01*
X129572975Y-50105839D01*
X129600327Y-50079232D01*
X129665854Y-50032492D01*
X129779860Y-49951173D01*
X129938096Y-49793489D01*
X129997594Y-49710689D01*
X130065435Y-49616277D01*
X130068453Y-49612077D01*
X130089320Y-49569857D01*
X130165136Y-49416453D01*
X130165137Y-49416451D01*
X130167430Y-49411811D01*
X130232370Y-49198069D01*
X130261529Y-48976590D01*
X130263156Y-48910000D01*
X130244852Y-48687361D01*
X130235630Y-48650647D01*
X132054625Y-48650647D01*
X132061680Y-48660620D01*
X132104757Y-48696637D01*
X132111694Y-48701677D01*
X132347895Y-48849846D01*
X132355446Y-48853895D01*
X132609581Y-48968640D01*
X132617612Y-48971627D01*
X132884967Y-49050822D01*
X132893318Y-49052689D01*
X133168954Y-49094867D01*
X133177487Y-49095583D01*
X133456291Y-49099963D01*
X133464842Y-49099514D01*
X133741659Y-49066016D01*
X133750073Y-49064411D01*
X134019786Y-48993654D01*
X134027902Y-48990923D01*
X134285521Y-48884213D01*
X134293183Y-48880410D01*
X134533933Y-48739727D01*
X134541020Y-48734910D01*
X134635883Y-48660529D01*
X134644353Y-48648670D01*
X134637836Y-48637046D01*
X133362812Y-47362022D01*
X133348868Y-47354408D01*
X133347035Y-47354539D01*
X133340420Y-47358790D01*
X132061917Y-48637293D01*
X132054625Y-48650647D01*
X130235630Y-48650647D01*
X130190431Y-48470702D01*
X130101354Y-48265840D01*
X129980014Y-48078277D01*
X129829670Y-47913051D01*
X129825619Y-47909852D01*
X129825615Y-47909848D01*
X129658414Y-47777800D01*
X129658410Y-47777798D01*
X129654359Y-47774598D01*
X129613053Y-47751796D01*
X129563084Y-47701364D01*
X129548312Y-47631921D01*
X129573428Y-47565516D01*
X129600780Y-47538909D01*
X129670237Y-47489366D01*
X129779860Y-47411173D01*
X129792285Y-47398792D01*
X129923616Y-47267918D01*
X129938096Y-47253489D01*
X129951891Y-47234292D01*
X130065435Y-47076277D01*
X130068453Y-47072077D01*
X130073437Y-47061994D01*
X130117838Y-46972154D01*
X131237437Y-46972154D01*
X131253488Y-47250533D01*
X131254561Y-47259033D01*
X131308246Y-47532664D01*
X131310457Y-47540916D01*
X131400782Y-47804736D01*
X131404097Y-47812621D01*
X131529389Y-48061736D01*
X131533745Y-48069102D01*
X131677432Y-48278166D01*
X131687685Y-48286510D01*
X131701426Y-48279364D01*
X132977978Y-47002812D01*
X132984356Y-46991132D01*
X133714408Y-46991132D01*
X133714539Y-46992965D01*
X133718790Y-46999580D01*
X134997264Y-48278054D01*
X135009474Y-48284721D01*
X135020973Y-48276032D01*
X135131464Y-48125617D01*
X135136048Y-48118393D01*
X135269099Y-47873346D01*
X135272667Y-47865553D01*
X135371227Y-47604721D01*
X135373704Y-47596515D01*
X135435954Y-47324718D01*
X135437294Y-47316257D01*
X135462243Y-47036715D01*
X135462489Y-47031776D01*
X135462900Y-46992485D01*
X135462757Y-46987519D01*
X135443669Y-46707520D01*
X135442508Y-46699046D01*
X135385962Y-46425998D01*
X135383658Y-46417744D01*
X135290579Y-46154897D01*
X135287183Y-46147049D01*
X135159286Y-45899254D01*
X135154858Y-45891942D01*
X135021812Y-45702636D01*
X135011290Y-45694256D01*
X134997902Y-45701308D01*
X133722022Y-46977188D01*
X133714408Y-46991132D01*
X132984356Y-46991132D01*
X132985592Y-46988868D01*
X132985461Y-46987035D01*
X132981210Y-46980420D01*
X131702160Y-45701370D01*
X131690150Y-45694811D01*
X131678410Y-45703779D01*
X131556748Y-45873091D01*
X131552226Y-45880385D01*
X131421757Y-46126799D01*
X131418271Y-46134627D01*
X131322446Y-46396481D01*
X131320057Y-46404704D01*
X131260654Y-46677151D01*
X131259405Y-46685607D01*
X131237526Y-46963604D01*
X131237437Y-46972154D01*
X130117838Y-46972154D01*
X130165136Y-46876453D01*
X130165137Y-46876451D01*
X130167430Y-46871811D01*
X130224003Y-46685607D01*
X130230865Y-46663023D01*
X130230865Y-46663021D01*
X130232370Y-46658069D01*
X130261529Y-46436590D01*
X130261788Y-46425998D01*
X130263074Y-46373365D01*
X130263074Y-46373361D01*
X130263156Y-46370000D01*
X130244852Y-46147361D01*
X130190431Y-45930702D01*
X130101354Y-45725840D01*
X130055278Y-45654618D01*
X129982822Y-45542617D01*
X129982820Y-45542614D01*
X129980014Y-45538277D01*
X129829670Y-45373051D01*
X129825619Y-45369852D01*
X129825615Y-45369848D01*
X129776880Y-45331359D01*
X132055442Y-45331359D01*
X132061837Y-45342627D01*
X133337188Y-46617978D01*
X133351132Y-46625592D01*
X133352965Y-46625461D01*
X133359580Y-46621210D01*
X134637667Y-45343123D01*
X134644858Y-45329954D01*
X134637535Y-45319716D01*
X134577298Y-45270413D01*
X134570326Y-45265457D01*
X134332560Y-45119754D01*
X134324990Y-45115796D01*
X134069657Y-45003714D01*
X134061597Y-45000812D01*
X133793432Y-44924424D01*
X133785054Y-44922642D01*
X133508998Y-44883353D01*
X133500451Y-44882726D01*
X133221614Y-44881265D01*
X133213081Y-44881802D01*
X132936622Y-44918200D01*
X132928221Y-44919894D01*
X132659274Y-44993469D01*
X132651179Y-44996288D01*
X132394694Y-45105688D01*
X132387071Y-45109572D01*
X132147809Y-45252767D01*
X132140771Y-45257658D01*
X132063912Y-45319233D01*
X132055442Y-45331359D01*
X129776880Y-45331359D01*
X129658414Y-45237800D01*
X129658410Y-45237798D01*
X129654359Y-45234598D01*
X129633752Y-45223222D01*
X129600039Y-45204612D01*
X129458789Y-45126638D01*
X129453920Y-45124914D01*
X129453916Y-45124912D01*
X129253087Y-45053795D01*
X129253083Y-45053794D01*
X129248212Y-45052069D01*
X129243119Y-45051162D01*
X129243116Y-45051161D01*
X129033373Y-45013800D01*
X129033367Y-45013799D01*
X129028284Y-45012894D01*
X128954452Y-45011992D01*
X128810081Y-45010228D01*
X128810079Y-45010228D01*
X128804911Y-45010165D01*
X128584091Y-45043955D01*
X128371756Y-45113357D01*
X128341443Y-45129137D01*
X128195643Y-45205036D01*
X128173607Y-45216507D01*
X128169474Y-45219610D01*
X128169471Y-45219612D01*
X127999100Y-45347530D01*
X127994965Y-45350635D01*
X127936640Y-45411669D01*
X127914283Y-45435064D01*
X127852759Y-45470494D01*
X127781846Y-45467037D01*
X127724060Y-45425791D01*
X127705207Y-45392243D01*
X127663767Y-45281703D01*
X127660615Y-45273295D01*
X127573261Y-45156739D01*
X127456705Y-45069385D01*
X127320316Y-45018255D01*
X127258134Y-45011500D01*
X125461866Y-45011500D01*
X125399684Y-45018255D01*
X125263295Y-45069385D01*
X125146739Y-45156739D01*
X125059385Y-45273295D01*
X125008255Y-45409684D01*
X125001500Y-45471866D01*
X125001500Y-47268134D01*
X125008255Y-47330316D01*
X125059385Y-47466705D01*
X125146739Y-47583261D01*
X125263295Y-47670615D01*
X125271704Y-47673767D01*
X125271705Y-47673768D01*
X125380451Y-47714535D01*
X125437216Y-47757176D01*
X125461916Y-47823738D01*
X125446709Y-47893087D01*
X125427316Y-47919568D01*
X125300629Y-48052138D01*
X125174743Y-48236680D01*
X125080688Y-48439305D01*
X125020989Y-48654570D01*
X124997251Y-48876695D01*
X124997548Y-48881848D01*
X124997548Y-48881851D01*
X125008352Y-49069223D01*
X125010110Y-49099715D01*
X125011247Y-49104761D01*
X125011248Y-49104767D01*
X125019581Y-49141740D01*
X125059222Y-49317639D01*
X125143266Y-49524616D01*
X125194019Y-49607438D01*
X125257291Y-49710688D01*
X125259987Y-49715088D01*
X125406250Y-49883938D01*
X125578126Y-50026632D01*
X125646126Y-50066368D01*
X125651445Y-50069476D01*
X125700169Y-50121114D01*
X125713240Y-50190897D01*
X125686509Y-50256669D01*
X125646055Y-50290027D01*
X125633607Y-50296507D01*
X125629474Y-50299610D01*
X125629471Y-50299612D01*
X125459525Y-50427211D01*
X125454965Y-50430635D01*
X125451393Y-50434373D01*
X125311275Y-50580998D01*
X125300629Y-50592138D01*
X125297715Y-50596410D01*
X125297714Y-50596411D01*
X125285404Y-50614457D01*
X125174743Y-50776680D01*
X125152999Y-50823524D01*
X125105110Y-50926693D01*
X125080688Y-50979305D01*
X125020989Y-51194570D01*
X124997251Y-51416695D01*
X121347710Y-51416695D01*
X121435654Y-51273183D01*
X121438240Y-51268963D01*
X121440692Y-51263045D01*
X121527211Y-51054167D01*
X121527212Y-51054165D01*
X121529105Y-51049594D01*
X121584535Y-50818711D01*
X121603165Y-50582000D01*
X121584535Y-50345289D01*
X121577936Y-50317800D01*
X121535835Y-50142440D01*
X121529105Y-50114406D01*
X121525995Y-50106898D01*
X121440135Y-49899611D01*
X121440133Y-49899607D01*
X121438240Y-49895037D01*
X121433462Y-49887240D01*
X121316759Y-49696798D01*
X121316755Y-49696792D01*
X121314176Y-49692584D01*
X121159969Y-49512031D01*
X120979416Y-49357824D01*
X120975208Y-49355245D01*
X120975202Y-49355241D01*
X120781183Y-49236346D01*
X120776963Y-49233760D01*
X120772393Y-49231867D01*
X120772389Y-49231865D01*
X120562167Y-49144789D01*
X120562165Y-49144788D01*
X120557594Y-49142895D01*
X120477391Y-49123640D01*
X120331524Y-49088620D01*
X120331518Y-49088619D01*
X120326711Y-49087465D01*
X120090000Y-49068835D01*
X119853289Y-49087465D01*
X119848482Y-49088619D01*
X119848476Y-49088620D01*
X119702609Y-49123640D01*
X119622406Y-49142895D01*
X119617835Y-49144788D01*
X119617833Y-49144789D01*
X119407611Y-49231865D01*
X119407607Y-49231867D01*
X119403037Y-49233760D01*
X119398817Y-49236346D01*
X119204798Y-49355241D01*
X119204792Y-49355245D01*
X119200584Y-49357824D01*
X119020031Y-49512031D01*
X118865824Y-49692584D01*
X118863245Y-49696792D01*
X118863241Y-49696798D01*
X118746538Y-49887240D01*
X118741760Y-49895037D01*
X118739867Y-49899607D01*
X118739865Y-49899611D01*
X118654005Y-50106898D01*
X118650895Y-50114406D01*
X118644165Y-50142440D01*
X118602065Y-50317800D01*
X118595465Y-50345289D01*
X118576835Y-50582000D01*
X115103165Y-50582000D01*
X115084535Y-50345289D01*
X115077936Y-50317800D01*
X115035835Y-50142440D01*
X115029105Y-50114406D01*
X115025995Y-50106898D01*
X114940135Y-49899611D01*
X114940133Y-49899607D01*
X114938240Y-49895037D01*
X114933462Y-49887240D01*
X114816759Y-49696798D01*
X114816755Y-49696792D01*
X114814176Y-49692584D01*
X114659969Y-49512031D01*
X114479416Y-49357824D01*
X114475208Y-49355245D01*
X114475202Y-49355241D01*
X114281183Y-49236346D01*
X114276963Y-49233760D01*
X114272393Y-49231867D01*
X114272389Y-49231865D01*
X114062167Y-49144789D01*
X114062165Y-49144788D01*
X114057594Y-49142895D01*
X113977391Y-49123640D01*
X113831524Y-49088620D01*
X113831518Y-49088619D01*
X113826711Y-49087465D01*
X113590000Y-49068835D01*
X113353289Y-49087465D01*
X113348482Y-49088619D01*
X113348476Y-49088620D01*
X113202609Y-49123640D01*
X113122406Y-49142895D01*
X113117835Y-49144788D01*
X113117833Y-49144789D01*
X112907611Y-49231865D01*
X112907607Y-49231867D01*
X112903037Y-49233760D01*
X112898817Y-49236346D01*
X112704798Y-49355241D01*
X112704792Y-49355245D01*
X112700584Y-49357824D01*
X112520031Y-49512031D01*
X112365824Y-49692584D01*
X112363242Y-49696797D01*
X112363235Y-49696807D01*
X112291826Y-49813335D01*
X112239179Y-49860966D01*
X112184394Y-49873500D01*
X111887660Y-49873500D01*
X111819539Y-49853498D01*
X111798565Y-49836595D01*
X108686383Y-46724413D01*
X108652357Y-46662101D01*
X108650556Y-46618871D01*
X108674995Y-46433240D01*
X108676529Y-46421590D01*
X108677139Y-46396621D01*
X108678074Y-46358365D01*
X108678074Y-46358361D01*
X108678156Y-46355000D01*
X114296502Y-46355000D01*
X114316457Y-46583087D01*
X114317881Y-46588400D01*
X114317881Y-46588402D01*
X114355025Y-46727022D01*
X114375716Y-46804243D01*
X114378039Y-46809224D01*
X114378039Y-46809225D01*
X114470151Y-47006762D01*
X114470154Y-47006767D01*
X114472477Y-47011749D01*
X114504216Y-47057077D01*
X114586849Y-47175088D01*
X114603802Y-47199300D01*
X114765700Y-47361198D01*
X114770208Y-47364355D01*
X114770211Y-47364357D01*
X114819931Y-47399171D01*
X114953251Y-47492523D01*
X114958233Y-47494846D01*
X114958238Y-47494849D01*
X115154765Y-47586490D01*
X115160757Y-47589284D01*
X115166065Y-47590706D01*
X115166067Y-47590707D01*
X115376598Y-47647119D01*
X115376600Y-47647119D01*
X115381913Y-47648543D01*
X115610000Y-47668498D01*
X115838087Y-47648543D01*
X115843400Y-47647119D01*
X115843402Y-47647119D01*
X116053933Y-47590707D01*
X116053935Y-47590706D01*
X116059243Y-47589284D01*
X116065235Y-47586490D01*
X116261762Y-47494849D01*
X116261767Y-47494846D01*
X116266749Y-47492523D01*
X116340243Y-47441062D01*
X119888493Y-47441062D01*
X119897789Y-47453077D01*
X119948994Y-47488931D01*
X119958489Y-47494414D01*
X120155947Y-47586490D01*
X120166239Y-47590236D01*
X120376688Y-47646625D01*
X120387481Y-47648528D01*
X120604525Y-47667517D01*
X120615475Y-47667517D01*
X120832519Y-47648528D01*
X120843312Y-47646625D01*
X121053761Y-47590236D01*
X121064053Y-47586490D01*
X121261511Y-47494414D01*
X121271006Y-47488931D01*
X121323048Y-47452491D01*
X121331424Y-47442012D01*
X121324356Y-47428566D01*
X120622812Y-46727022D01*
X120608868Y-46719408D01*
X120607035Y-46719539D01*
X120600420Y-46723790D01*
X119894923Y-47429287D01*
X119888493Y-47441062D01*
X116340243Y-47441062D01*
X116400069Y-47399171D01*
X116449789Y-47364357D01*
X116449792Y-47364355D01*
X116454300Y-47361198D01*
X116616198Y-47199300D01*
X116633152Y-47175088D01*
X116715784Y-47057077D01*
X116747523Y-47011749D01*
X116749846Y-47006767D01*
X116749849Y-47006762D01*
X116841961Y-46809225D01*
X116841961Y-46809224D01*
X116844284Y-46804243D01*
X116864976Y-46727022D01*
X116902119Y-46588402D01*
X116902119Y-46588400D01*
X116903543Y-46583087D01*
X116923019Y-46360475D01*
X119297483Y-46360475D01*
X119316472Y-46577519D01*
X119318375Y-46588312D01*
X119374764Y-46798761D01*
X119378510Y-46809053D01*
X119470586Y-47006511D01*
X119476069Y-47016006D01*
X119512509Y-47068048D01*
X119522988Y-47076424D01*
X119536434Y-47069356D01*
X120237978Y-46367812D01*
X120244356Y-46356132D01*
X120974408Y-46356132D01*
X120974539Y-46357965D01*
X120978790Y-46364580D01*
X121684287Y-47070077D01*
X121696062Y-47076507D01*
X121708077Y-47067211D01*
X121743931Y-47016006D01*
X121749414Y-47006511D01*
X121841490Y-46809053D01*
X121845236Y-46798761D01*
X121901625Y-46588312D01*
X121903528Y-46577519D01*
X121922517Y-46360475D01*
X121922517Y-46349525D01*
X121903528Y-46132481D01*
X121901625Y-46121688D01*
X121845236Y-45911239D01*
X121841490Y-45900947D01*
X121749414Y-45703489D01*
X121743931Y-45693994D01*
X121707491Y-45641952D01*
X121697012Y-45633576D01*
X121683566Y-45640644D01*
X120982022Y-46342188D01*
X120974408Y-46356132D01*
X120244356Y-46356132D01*
X120245592Y-46353868D01*
X120245461Y-46352035D01*
X120241210Y-46345420D01*
X119535713Y-45639923D01*
X119523938Y-45633493D01*
X119511923Y-45642789D01*
X119476069Y-45693994D01*
X119470586Y-45703489D01*
X119378510Y-45900947D01*
X119374764Y-45911239D01*
X119318375Y-46121688D01*
X119316472Y-46132481D01*
X119297483Y-46349525D01*
X119297483Y-46360475D01*
X116923019Y-46360475D01*
X116923498Y-46355000D01*
X116903543Y-46126913D01*
X116902119Y-46121598D01*
X116845707Y-45911067D01*
X116845706Y-45911065D01*
X116844284Y-45905757D01*
X116829052Y-45873091D01*
X116749849Y-45703238D01*
X116749846Y-45703233D01*
X116747523Y-45698251D01*
X116628260Y-45527926D01*
X116619357Y-45515211D01*
X116619355Y-45515208D01*
X116616198Y-45510700D01*
X116454300Y-45348802D01*
X116449792Y-45345645D01*
X116449789Y-45345643D01*
X116338886Y-45267988D01*
X119888576Y-45267988D01*
X119895644Y-45281434D01*
X120597188Y-45982978D01*
X120611132Y-45990592D01*
X120612965Y-45990461D01*
X120619580Y-45986210D01*
X121325077Y-45280713D01*
X121331507Y-45268938D01*
X121322211Y-45256923D01*
X121271006Y-45221069D01*
X121261511Y-45215586D01*
X121064053Y-45123510D01*
X121053761Y-45119764D01*
X120843312Y-45063375D01*
X120832519Y-45061472D01*
X120615475Y-45042483D01*
X120604525Y-45042483D01*
X120387481Y-45061472D01*
X120376688Y-45063375D01*
X120166239Y-45119764D01*
X120155947Y-45123510D01*
X119958489Y-45215586D01*
X119948994Y-45221069D01*
X119896952Y-45257509D01*
X119888576Y-45267988D01*
X116338886Y-45267988D01*
X116323920Y-45257509D01*
X116266749Y-45217477D01*
X116261767Y-45215154D01*
X116261762Y-45215151D01*
X116064225Y-45123039D01*
X116064224Y-45123039D01*
X116059243Y-45120716D01*
X116053935Y-45119294D01*
X116053933Y-45119293D01*
X115843402Y-45062881D01*
X115843400Y-45062881D01*
X115838087Y-45061457D01*
X115610000Y-45041502D01*
X115381913Y-45061457D01*
X115376600Y-45062881D01*
X115376598Y-45062881D01*
X115166067Y-45119293D01*
X115166065Y-45119294D01*
X115160757Y-45120716D01*
X115155776Y-45123039D01*
X115155775Y-45123039D01*
X114958238Y-45215151D01*
X114958233Y-45215154D01*
X114953251Y-45217477D01*
X114896080Y-45257509D01*
X114770211Y-45345643D01*
X114770208Y-45345645D01*
X114765700Y-45348802D01*
X114603802Y-45510700D01*
X114600645Y-45515208D01*
X114600643Y-45515211D01*
X114591740Y-45527926D01*
X114472477Y-45698251D01*
X114470154Y-45703233D01*
X114470151Y-45703238D01*
X114390948Y-45873091D01*
X114375716Y-45905757D01*
X114374294Y-45911065D01*
X114374293Y-45911067D01*
X114317881Y-46121598D01*
X114316457Y-46126913D01*
X114296502Y-46355000D01*
X108678156Y-46355000D01*
X108659852Y-46132361D01*
X108605431Y-45915702D01*
X108516354Y-45710840D01*
X108430144Y-45577579D01*
X108397822Y-45527617D01*
X108397820Y-45527614D01*
X108395014Y-45523277D01*
X108244670Y-45358051D01*
X108240619Y-45354852D01*
X108240615Y-45354848D01*
X108073414Y-45222800D01*
X108073410Y-45222798D01*
X108069359Y-45219598D01*
X108062092Y-45215586D01*
X107968496Y-45163919D01*
X107873789Y-45111638D01*
X107868920Y-45109914D01*
X107868916Y-45109912D01*
X107668087Y-45038795D01*
X107668083Y-45038794D01*
X107663212Y-45037069D01*
X107658119Y-45036162D01*
X107658116Y-45036161D01*
X107448373Y-44998800D01*
X107448367Y-44998799D01*
X107443284Y-44997894D01*
X107369452Y-44996992D01*
X107225081Y-44995228D01*
X107225079Y-44995228D01*
X107219911Y-44995165D01*
X106999091Y-45028955D01*
X106786756Y-45098357D01*
X106588607Y-45201507D01*
X106584474Y-45204610D01*
X106584471Y-45204612D01*
X106414100Y-45332530D01*
X106409965Y-45335635D01*
X106406393Y-45339373D01*
X106279780Y-45471866D01*
X106255629Y-45497138D01*
X106148201Y-45654621D01*
X106093293Y-45699621D01*
X106022768Y-45707792D01*
X105959021Y-45676538D01*
X105938324Y-45652054D01*
X105857822Y-45527617D01*
X105857820Y-45527614D01*
X105855014Y-45523277D01*
X105704670Y-45358051D01*
X105700619Y-45354852D01*
X105700615Y-45354848D01*
X105533414Y-45222800D01*
X105533410Y-45222798D01*
X105529359Y-45219598D01*
X105522092Y-45215586D01*
X105428496Y-45163919D01*
X105333789Y-45111638D01*
X105328920Y-45109914D01*
X105328916Y-45109912D01*
X105128087Y-45038795D01*
X105128083Y-45038794D01*
X105123212Y-45037069D01*
X105118119Y-45036162D01*
X105118116Y-45036161D01*
X104908373Y-44998800D01*
X104908367Y-44998799D01*
X104903284Y-44997894D01*
X104829452Y-44996992D01*
X104685081Y-44995228D01*
X104685079Y-44995228D01*
X104679911Y-44995165D01*
X104459091Y-45028955D01*
X104246756Y-45098357D01*
X104048607Y-45201507D01*
X104044474Y-45204610D01*
X104044471Y-45204612D01*
X103874100Y-45332530D01*
X103869965Y-45335635D01*
X103866393Y-45339373D01*
X103739780Y-45471866D01*
X103715629Y-45497138D01*
X103608201Y-45654621D01*
X103553293Y-45699621D01*
X103482768Y-45707792D01*
X103419021Y-45676538D01*
X103398324Y-45652054D01*
X103317822Y-45527617D01*
X103317820Y-45527614D01*
X103315014Y-45523277D01*
X103164670Y-45358051D01*
X103160619Y-45354852D01*
X103160615Y-45354848D01*
X102993414Y-45222800D01*
X102993410Y-45222798D01*
X102989359Y-45219598D01*
X102982092Y-45215586D01*
X102888496Y-45163919D01*
X102793789Y-45111638D01*
X102788920Y-45109914D01*
X102788916Y-45109912D01*
X102588087Y-45038795D01*
X102588083Y-45038794D01*
X102583212Y-45037069D01*
X102578119Y-45036162D01*
X102578116Y-45036161D01*
X102368373Y-44998800D01*
X102368367Y-44998799D01*
X102363284Y-44997894D01*
X102289452Y-44996992D01*
X102145081Y-44995228D01*
X102145079Y-44995228D01*
X102139911Y-44995165D01*
X101919091Y-45028955D01*
X101706756Y-45098357D01*
X101508607Y-45201507D01*
X101504474Y-45204610D01*
X101504471Y-45204612D01*
X101334100Y-45332530D01*
X101329965Y-45335635D01*
X101326393Y-45339373D01*
X101199780Y-45471866D01*
X101175629Y-45497138D01*
X101068201Y-45654621D01*
X101013293Y-45699621D01*
X100942768Y-45707792D01*
X100879021Y-45676538D01*
X100858324Y-45652054D01*
X100777822Y-45527617D01*
X100777820Y-45527614D01*
X100775014Y-45523277D01*
X100624670Y-45358051D01*
X100620619Y-45354852D01*
X100620615Y-45354848D01*
X100453414Y-45222800D01*
X100453410Y-45222798D01*
X100449359Y-45219598D01*
X100442092Y-45215586D01*
X100348496Y-45163919D01*
X100253789Y-45111638D01*
X100248920Y-45109914D01*
X100248916Y-45109912D01*
X100048087Y-45038795D01*
X100048083Y-45038794D01*
X100043212Y-45037069D01*
X100038119Y-45036162D01*
X100038116Y-45036161D01*
X99828373Y-44998800D01*
X99828367Y-44998799D01*
X99823284Y-44997894D01*
X99749452Y-44996992D01*
X99605081Y-44995228D01*
X99605079Y-44995228D01*
X99599911Y-44995165D01*
X99379091Y-45028955D01*
X99166756Y-45098357D01*
X98968607Y-45201507D01*
X98964474Y-45204610D01*
X98964471Y-45204612D01*
X98794100Y-45332530D01*
X98789965Y-45335635D01*
X98786393Y-45339373D01*
X98659780Y-45471866D01*
X98635629Y-45497138D01*
X98528201Y-45654621D01*
X98473293Y-45699621D01*
X98402768Y-45707792D01*
X98339021Y-45676538D01*
X98318324Y-45652054D01*
X98237822Y-45527617D01*
X98237820Y-45527614D01*
X98235014Y-45523277D01*
X98084670Y-45358051D01*
X98080619Y-45354852D01*
X98080615Y-45354848D01*
X97913414Y-45222800D01*
X97913410Y-45222798D01*
X97909359Y-45219598D01*
X97902092Y-45215586D01*
X97808496Y-45163919D01*
X97713789Y-45111638D01*
X97708920Y-45109914D01*
X97708916Y-45109912D01*
X97508087Y-45038795D01*
X97508083Y-45038794D01*
X97503212Y-45037069D01*
X97498119Y-45036162D01*
X97498116Y-45036161D01*
X97288373Y-44998800D01*
X97288367Y-44998799D01*
X97283284Y-44997894D01*
X97209452Y-44996992D01*
X97065081Y-44995228D01*
X97065079Y-44995228D01*
X97059911Y-44995165D01*
X96839091Y-45028955D01*
X96626756Y-45098357D01*
X96428607Y-45201507D01*
X96424474Y-45204610D01*
X96424471Y-45204612D01*
X96254100Y-45332530D01*
X96249965Y-45335635D01*
X96246393Y-45339373D01*
X96119780Y-45471866D01*
X96095629Y-45497138D01*
X95988201Y-45654621D01*
X95933293Y-45699621D01*
X95862768Y-45707792D01*
X95799021Y-45676538D01*
X95778324Y-45652054D01*
X95697822Y-45527617D01*
X95697820Y-45527614D01*
X95695014Y-45523277D01*
X95544670Y-45358051D01*
X95540619Y-45354852D01*
X95540615Y-45354848D01*
X95373414Y-45222800D01*
X95373410Y-45222798D01*
X95369359Y-45219598D01*
X95362092Y-45215586D01*
X95268496Y-45163919D01*
X95173789Y-45111638D01*
X95168920Y-45109914D01*
X95168916Y-45109912D01*
X94968087Y-45038795D01*
X94968083Y-45038794D01*
X94963212Y-45037069D01*
X94958119Y-45036162D01*
X94958116Y-45036161D01*
X94748373Y-44998800D01*
X94748367Y-44998799D01*
X94743284Y-44997894D01*
X94669452Y-44996992D01*
X94525081Y-44995228D01*
X94525079Y-44995228D01*
X94519911Y-44995165D01*
X94299091Y-45028955D01*
X94086756Y-45098357D01*
X93888607Y-45201507D01*
X93884474Y-45204610D01*
X93884471Y-45204612D01*
X93714100Y-45332530D01*
X93709965Y-45335635D01*
X93706393Y-45339373D01*
X93579780Y-45471866D01*
X93555629Y-45497138D01*
X93552720Y-45501403D01*
X93552714Y-45501411D01*
X93545397Y-45512138D01*
X93448204Y-45654618D01*
X93447898Y-45655066D01*
X93392987Y-45700069D01*
X93322462Y-45708240D01*
X93258715Y-45676986D01*
X93238018Y-45652502D01*
X93157426Y-45527926D01*
X93151136Y-45519757D01*
X93007806Y-45362240D01*
X93000273Y-45355215D01*
X92833139Y-45223222D01*
X92824552Y-45217517D01*
X92638117Y-45114599D01*
X92628705Y-45110369D01*
X92427959Y-45039280D01*
X92417988Y-45036646D01*
X92346837Y-45023972D01*
X92333540Y-45025432D01*
X92329000Y-45039989D01*
X92329000Y-47673517D01*
X91821000Y-47673517D01*
X91821000Y-45038102D01*
X91817082Y-45024758D01*
X91802806Y-45022771D01*
X91764324Y-45028660D01*
X91754288Y-45031051D01*
X91551868Y-45097212D01*
X91542359Y-45101209D01*
X91353463Y-45199542D01*
X91344738Y-45205036D01*
X91174433Y-45332905D01*
X91166726Y-45339748D01*
X91089478Y-45420584D01*
X91027954Y-45456014D01*
X90957042Y-45452557D01*
X90899255Y-45411311D01*
X90880402Y-45377763D01*
X90838767Y-45266703D01*
X90835615Y-45258295D01*
X90748261Y-45141739D01*
X90631705Y-45054385D01*
X90495316Y-45003255D01*
X90433134Y-44996500D01*
X88636866Y-44996500D01*
X88574684Y-45003255D01*
X88438295Y-45054385D01*
X88321739Y-45141739D01*
X88234385Y-45258295D01*
X88183255Y-45394684D01*
X88176500Y-45456866D01*
X88176500Y-47253134D01*
X83820000Y-47253134D01*
X83820000Y-46134234D01*
X83820270Y-46125992D01*
X83822100Y-46098074D01*
X83824251Y-46081735D01*
X83858164Y-45911239D01*
X83872872Y-45837299D01*
X83877137Y-45821382D01*
X83907957Y-45730590D01*
X83957246Y-45585387D01*
X83963552Y-45570163D01*
X84041711Y-45411669D01*
X84073778Y-45346642D01*
X84082017Y-45332372D01*
X84090474Y-45319716D01*
X84220476Y-45125153D01*
X84230506Y-45112080D01*
X84230796Y-45111750D01*
X84394827Y-44924706D01*
X84406478Y-44913054D01*
X84442114Y-44881802D01*
X84593853Y-44748727D01*
X84606928Y-44738694D01*
X84814150Y-44600230D01*
X84828416Y-44591994D01*
X85051932Y-44481765D01*
X85067158Y-44475458D01*
X85303153Y-44395345D01*
X85319073Y-44391079D01*
X85410566Y-44372878D01*
X85563514Y-44342453D01*
X85579840Y-44340304D01*
X85731614Y-44330354D01*
X85794831Y-44326210D01*
X85818753Y-44327275D01*
X85821620Y-44327310D01*
X85830492Y-44328691D01*
X85862049Y-44324564D01*
X85878388Y-44323500D01*
X133935633Y-44323500D01*
X133955018Y-44325000D01*
G37*
%TD.AperFunction*%
%TD*%
M02*
