M48
; DRILL file {KiCad (6.0.11)} date Fri Feb 10 16:42:03 2023
; FORMAT={-:-/ absolute / inch / decimal}
; #@! TF.CreationDate,2023-02-10T16:42:03+03:00
; #@! TF.GenerationSoftware,Kicad,Pcbnew,(6.0.11)
; #@! TF.FileFunction,Plated,1,2,PTH
FMAT,2
INCH
; #@! TA.AperFunction,Plated,PTH,ViaDrill
T1C0.0118
; #@! TA.AperFunction,Plated,PTH,ViaDrill
T2C0.0157
; #@! TA.AperFunction,Plated,PTH,ComponentDrill
T3C0.0236
; #@! TA.AperFunction,Plated,PTH,ComponentDrill
T4C0.0295
; #@! TA.AperFunction,Plated,PTH,ComponentDrill
T5C0.0315
; #@! TA.AperFunction,Plated,PTH,ComponentDrill
T6C0.0354
; #@! TA.AperFunction,Plated,PTH,ComponentDrill
T7C0.0394
; #@! TA.AperFunction,Plated,PTH,ComponentDrill
T8C0.0433
; #@! TA.AperFunction,Plated,PTH,ComponentDrill
T9C0.0866
%
G90
G05
T1
X3.52Y-2.54
X3.7Y-2.2
X3.765Y-2.075
X3.815Y-2.025
X3.88Y-2.58
X3.88Y-2.62
X3.9Y-2.1
X4.0Y-2.62
X4.02Y-2.2
X4.28Y-2.0
X4.4Y-1.96
X4.4007Y-2.0807
T2
X3.3285Y-2.24
T3
X4.5548Y-1.84
X4.6138Y-1.84
T4
X3.4098Y-2.2983
X3.4098Y-2.4005
X3.7098Y-2.2983
X3.7098Y-2.4005
T5
X3.4Y-2.18
X3.4Y-2.52
X3.4Y-2.7
X3.8Y-2.18
X3.8Y-2.52
X3.8Y-2.7
X3.94Y-2.7
X3.9407Y-2.202
X3.9407Y-2.302
X3.9407Y-2.402
X3.9407Y-2.502
X4.0216Y-2.86
X4.2184Y-2.86
X4.2407Y-2.202
X4.2407Y-2.302
X4.2407Y-2.402
X4.2407Y-2.502
X4.34Y-2.7
X4.4Y-2.86
X4.8Y-2.86
T6
X3.4Y-2.86
X3.8Y-2.86
X4.6Y-2.3231
X4.6Y-2.4231
X4.6Y-2.5943
X4.6Y-2.6943
T7
X3.525Y-1.825
X3.625Y-1.825
X3.725Y-1.825
X3.825Y-1.825
X3.925Y-1.825
X4.025Y-1.825
X4.125Y-1.825
X4.225Y-1.825
X4.9748Y-1.8256
X4.9748Y-1.9256
X4.9748Y-2.0256
X5.0748Y-1.8256
X5.0748Y-1.9256
X5.0748Y-2.0256
T8
X4.472Y-2.0114
X4.472Y-2.1886
X4.728Y-2.0114
X4.728Y-2.1886
T9
X5.25Y-1.85
X5.25Y-2.85
T0
M30
