%TF.GenerationSoftware,KiCad,Pcbnew,(6.0.11)*%
%TF.CreationDate,2023-02-09T23:11:33+03:00*%
%TF.ProjectId,QDevTiny,51446576-5469-46e7-992e-6b696361645f,rev?*%
%TF.SameCoordinates,Original*%
%TF.FileFunction,Soldermask,Bot*%
%TF.FilePolarity,Negative*%
%FSLAX46Y46*%
G04 Gerber Fmt 4.6, Leading zero omitted, Abs format (unit mm)*
G04 Created by KiCad (PCBNEW (6.0.11)) date 2023-02-09 23:11:33*
%MOMM*%
%LPD*%
G01*
G04 APERTURE LIST*
%ADD10R,1.700000X1.700000*%
%ADD11O,1.700000X1.700000*%
%ADD12C,3.200000*%
%ADD13R,1.800000X1.800000*%
%ADD14C,1.800000*%
%ADD15R,1.600000X1.600000*%
%ADD16O,1.600000X1.600000*%
%ADD17C,1.600000*%
%ADD18O,1.800000X1.800000*%
%ADD19R,1.500000X1.500000*%
%ADD20O,1.500000X1.500000*%
%ADD21C,2.000000*%
G04 APERTURE END LIST*
D10*
%TO.C,J2*%
X89535000Y-46355000D03*
D11*
X92075000Y-46355000D03*
X94615000Y-46355000D03*
X97155000Y-46355000D03*
X99695000Y-46355000D03*
X102235000Y-46355000D03*
X104775000Y-46355000D03*
X107315000Y-46355000D03*
%TD*%
D12*
%TO.C,REF\u002A\u002A*%
X133350000Y-72390000D03*
%TD*%
D13*
%TO.C,D2*%
X116840000Y-65895000D03*
D14*
X116840000Y-68435000D03*
%TD*%
D15*
%TO.C,U1*%
X107714602Y-63549897D03*
D16*
X107714602Y-61009897D03*
X107714602Y-58469897D03*
X107714602Y-55929897D03*
X100094602Y-55929897D03*
X100094602Y-58469897D03*
X100094602Y-61009897D03*
X100094602Y-63549897D03*
%TD*%
D17*
%TO.C,C1*%
X107148000Y-72644000D03*
X102148000Y-72644000D03*
%TD*%
D12*
%TO.C,REF\u002A\u002A*%
X133350000Y-46990000D03*
%TD*%
D17*
%TO.C,R1*%
X111760000Y-72644000D03*
D16*
X121920000Y-72644000D03*
%TD*%
D17*
%TO.C,R5*%
X100076000Y-68580000D03*
D16*
X110236000Y-68580000D03*
%TD*%
D17*
%TO.C,R2*%
X86360000Y-68580000D03*
D16*
X96520000Y-68580000D03*
%TD*%
D17*
%TO.C,C2*%
X115610000Y-46355000D03*
X120610000Y-46355000D03*
%TD*%
D13*
%TO.C,D3*%
X96520000Y-72644000D03*
D18*
X86360000Y-72644000D03*
%TD*%
D13*
%TO.C,D1*%
X116840000Y-59007000D03*
D14*
X116840000Y-61547000D03*
%TD*%
D19*
%TO.C,D4*%
X86609000Y-60973220D03*
D20*
X94229000Y-60973220D03*
%TD*%
D10*
%TO.C,J3*%
X126360000Y-46370000D03*
D11*
X128900000Y-46370000D03*
X126360000Y-48910000D03*
X128900000Y-48910000D03*
X126360000Y-51450000D03*
X128900000Y-51450000D03*
%TD*%
D17*
%TO.C,R3*%
X86360000Y-64008000D03*
D16*
X96520000Y-64008000D03*
%TD*%
D21*
%TO.C,SW1*%
X113590000Y-50582000D03*
X120090000Y-50582000D03*
X113590000Y-55082000D03*
X120090000Y-55082000D03*
%TD*%
D17*
%TO.C,R4*%
X86360000Y-55372000D03*
D16*
X96520000Y-55372000D03*
%TD*%
D19*
%TO.C,D5*%
X86609000Y-58376780D03*
D20*
X94229000Y-58376780D03*
%TD*%
M02*
